<svg width="690" height="1139" viewBox="0 0 690 1139" fill="none" xmlns="http://www.w3.org/2000/svg">
<path d="M133.722 64.3907C134.545 66.9637 137.358 68.4004 140.003 67.5997C142.648 66.7991 144.125 64.0641 143.302 61.4911C142.478 58.9181 139.666 57.4814 137.02 58.282C134.375 59.0827 132.898 61.8176 133.722 64.3907Z" fill="#815E46"/>
<path d="M129.361 83.5962C130.185 86.1692 132.997 87.6059 135.643 86.8053C138.288 86.0046 139.765 83.2696 138.941 80.6966C138.118 78.1236 135.306 76.6869 132.66 77.4876C130.015 78.2882 128.538 81.0232 129.361 83.5962Z" fill="#815E46"/>
<path d="M111.693 94.0541C112.517 96.6271 115.329 98.0639 117.974 97.2632C120.62 96.4625 122.097 93.7276 121.273 91.1546C120.449 88.5815 117.637 87.1448 114.992 87.9455C112.346 88.7462 110.869 91.4811 111.693 94.0541Z" fill="#815E46"/>
<path d="M122.651 62.6313C123.14 64.1609 123.315 65.7692 123.166 67.3644C123.016 68.9596 122.545 70.5106 121.78 71.9287C121.014 73.3468 119.968 74.6042 118.703 75.6293C117.437 76.6544 115.977 77.4269 114.404 77.9029L106.022 80.44C104.018 81.0457 101.858 80.9335 99.9319 80.1237C98.0059 79.3139 96.4417 77.86 95.5226 76.0255C94.6035 74.1909 94.3903 72.097 94.9216 70.1229C95.4529 68.1489 96.6935 66.4252 98.4188 65.2642C101.398 63.2724 102.886 60.5223 102.884 57.014C102.887 54.9744 103.642 53.0035 105.01 51.458C106.378 49.9124 108.27 48.8944 110.343 48.588C112.416 48.2816 114.534 48.7071 116.313 49.7875C118.091 50.868 119.414 52.5319 120.041 54.4784L122.651 62.6313Z" fill="#815E46"/>
<path d="M52.3489 185.55C53.1725 188.123 55.9847 189.56 58.6301 188.759C61.2755 187.958 62.7523 185.223 61.9287 182.65C61.1051 180.077 58.2929 178.641 55.6475 179.441C53.0021 180.242 51.5252 182.977 52.3489 185.55Z" fill="#815E46"/>
<path d="M47.9886 204.755C48.8122 207.328 51.6244 208.765 54.2698 207.964C56.9152 207.164 58.392 204.429 57.5684 201.856C56.7448 199.283 53.9326 197.846 51.2872 198.647C48.6418 199.447 47.1649 202.182 47.9886 204.755Z" fill="#815E46"/>
<path d="M30.3202 215.213C31.1438 217.786 33.956 219.223 36.6014 218.422C39.2468 217.622 40.7236 214.887 39.9 212.314C39.0764 209.741 36.2642 208.304 33.6188 209.105C30.9734 209.905 29.4966 212.64 30.3202 215.213Z" fill="#815E46"/>
<path d="M41.2777 183.791C41.7673 185.32 41.9424 186.928 41.7929 188.524C41.6435 190.119 41.1724 191.67 40.4067 193.088C39.6409 194.506 38.5954 195.763 37.3299 196.788C36.0645 197.814 34.6037 198.586 33.0312 199.062L24.6488 201.599C22.6453 202.205 20.4849 202.093 18.559 201.283C16.633 200.473 15.0688 199.019 14.1497 197.185C13.2306 195.35 13.0174 193.256 13.5487 191.282C14.0799 189.308 15.3206 187.584 17.0459 186.423C20.0248 184.432 21.5131 181.681 21.511 178.173C21.5145 176.134 22.2686 174.163 23.6368 172.617C25.005 171.072 26.8969 170.054 28.9701 169.747C31.0433 169.441 33.1609 169.866 34.9397 170.947C36.7186 172.027 38.0411 173.691 38.668 175.638L41.2777 183.791Z" fill="#815E46"/>
<path d="M234.371 122.827C235.195 125.4 238.007 126.837 240.653 126.036C243.298 125.236 244.775 122.501 243.951 119.928C243.128 117.355 240.315 115.918 237.67 116.719C235.025 117.519 233.548 120.254 234.371 122.827Z" fill="#815E46"/>
<path d="M230.011 142.033C230.835 144.606 233.647 146.042 236.292 145.242C238.938 144.441 240.414 141.706 239.591 139.133C238.767 136.56 235.955 135.123 233.31 135.924C230.664 136.725 229.187 139.46 230.011 142.033Z" fill="#815E46"/>
<path d="M212.343 152.491C213.166 155.064 215.978 156.5 218.624 155.7C221.269 154.899 222.746 152.164 221.922 149.591C221.099 147.018 218.287 145.581 215.641 146.382C212.996 147.183 211.519 149.918 212.343 152.491Z" fill="#815E46"/>
<path d="M223.3 121.068C223.79 122.597 223.965 124.206 223.815 125.801C223.666 127.396 223.195 128.947 222.429 130.365C221.663 131.783 220.618 133.041 219.352 134.066C218.087 135.091 216.626 135.863 215.054 136.339L206.671 138.877C204.668 139.482 202.507 139.37 200.581 138.56C198.655 137.75 197.091 136.297 196.172 134.462C195.253 132.627 195.04 130.534 195.571 128.559C196.102 126.585 197.343 124.862 199.068 123.701C202.047 121.709 203.536 118.959 203.533 115.45C203.537 113.411 204.291 111.44 205.659 109.894C207.027 108.349 208.919 107.331 210.993 107.024C213.066 106.718 215.183 107.144 216.962 108.224C218.741 109.304 220.064 110.968 220.69 112.915L223.3 121.068Z" fill="#815E46"/>
<path d="M152.219 217.36C153.042 219.933 155.855 221.37 158.5 220.569C161.145 219.768 162.622 217.033 161.799 214.46C160.975 211.887 158.163 210.451 155.517 211.251C152.872 212.052 151.395 214.787 152.219 217.36Z" fill="#AD7F58"/>
<path d="M147.859 236.565C148.682 239.138 151.494 240.575 154.14 239.774C156.785 238.974 158.262 236.239 157.438 233.666C156.615 231.093 153.803 229.656 151.157 230.457C148.512 231.257 147.035 233.992 147.859 236.565Z" fill="#AD7F58"/>
<path d="M130.19 247.023C131.014 249.596 133.826 251.033 136.471 250.232C139.117 249.432 140.594 246.697 139.77 244.124C138.946 241.551 136.134 240.114 133.489 240.915C130.843 241.715 129.367 244.45 130.19 247.023Z" fill="#AD7F58"/>
<path d="M141.148 215.601C141.637 217.13 141.812 218.738 141.663 220.334C141.513 221.929 141.042 223.48 140.277 224.898C139.511 226.316 138.465 227.573 137.2 228.599C135.934 229.624 134.474 230.396 132.901 230.872L124.519 233.409C122.515 234.015 120.355 233.903 118.429 233.093C116.503 232.283 114.939 230.829 114.02 228.995C113.101 227.16 112.887 225.066 113.419 223.092C113.95 221.118 115.191 219.394 116.916 218.233C119.895 216.242 121.383 213.492 121.381 209.983C121.385 207.944 122.139 205.973 123.507 204.427C124.875 202.882 126.767 201.864 128.84 201.557C130.913 201.251 133.031 201.676 134.81 202.757C136.589 203.837 137.911 205.501 138.538 207.448L141.148 215.601Z" fill="#AD7F58"/>
<path d="M45.1487 29.6534C45.9723 32.2264 48.7845 33.6631 51.4299 32.8624C54.0753 32.0618 55.5521 29.3268 54.7285 26.7538C53.9049 24.1808 51.0927 22.744 48.4473 23.5447C45.8019 24.3454 44.325 27.0803 45.1487 29.6534Z" fill="#AD7F58"/>
<path d="M40.7884 48.8589C41.612 51.4319 44.4242 52.8686 47.0696 52.0679C49.715 51.2673 51.1918 48.5323 50.3682 45.9593C49.5446 43.3863 46.7324 41.9496 44.087 42.7502C41.4416 43.5509 39.9647 46.2859 40.7884 48.8589Z" fill="#AD7F58"/>
<path d="M23.12 59.3168C23.9436 61.8898 26.7558 63.3266 29.4012 62.5259C32.0466 61.7252 33.5235 58.9903 32.6998 56.4173C31.8762 53.8442 29.064 52.4075 26.4186 53.2082C23.7732 54.0089 22.2964 56.7438 23.12 59.3168Z" fill="#AD7F58"/>
<path d="M34.0775 27.894C34.5671 29.4236 34.7422 31.0319 34.5927 32.6271C34.4433 34.2223 33.9722 35.7733 33.2065 37.1914C32.4407 38.6095 31.3952 39.8669 30.1297 40.892C28.8643 41.9171 27.4035 42.6896 25.831 43.1656L17.4486 45.7027C15.4451 46.3084 13.2848 46.1962 11.3588 45.3864C9.43281 44.5766 7.86861 43.1227 6.94951 41.2882C6.03041 39.4536 5.81719 37.3597 6.34847 35.3856C6.87974 33.4116 8.12038 31.6879 9.84567 30.5269C12.8246 28.5351 14.3129 25.785 14.3108 22.2767C14.3143 20.2371 15.0684 18.2662 16.4366 16.7207C17.8048 15.1751 19.6967 14.1571 21.7699 13.8507C23.8431 13.5443 25.9607 13.9698 27.7396 15.0502C29.5184 16.1307 30.8409 17.7946 31.4678 19.741L34.0775 27.894Z" fill="#AD7F58"/>
<path d="M315.266 205.357C314.832 208.044 316.704 210.548 319.445 210.952C322.187 211.355 324.761 209.505 325.194 206.818C325.628 204.132 323.757 201.627 321.015 201.224C318.273 200.82 315.699 202.671 315.266 205.357Z" fill="#815E46"/>
<path d="M302.59 220.92C302.157 223.606 304.028 226.111 306.77 226.515C309.511 226.918 312.085 225.068 312.519 222.381C312.952 219.695 311.081 217.19 308.339 216.787C305.598 216.383 303.024 218.234 302.59 220.92Z" fill="#815E46"/>
<path d="M281.949 222.862C281.515 225.548 283.386 228.053 286.128 228.456C288.87 228.86 291.444 227.009 291.877 224.323C292.311 221.637 290.439 219.132 287.698 218.728C284.956 218.325 282.382 220.176 281.949 222.862Z" fill="#815E46"/>
<path d="M306.122 199.032C305.865 200.629 305.288 202.163 304.427 203.547C303.565 204.93 302.435 206.136 301.1 207.096C299.765 208.055 298.253 208.75 296.648 209.139C295.044 209.529 293.379 209.606 291.75 209.366L283.062 208.087C280.986 207.781 279.097 206.756 277.736 205.199C276.375 203.642 275.632 201.654 275.643 199.597C275.654 197.54 276.418 195.549 277.795 193.985C279.173 192.421 281.073 191.387 283.153 191.071C286.737 190.536 289.328 188.676 290.926 185.492C291.86 183.643 293.436 182.177 295.37 181.359C297.304 180.542 299.468 180.426 301.47 181.033C303.472 181.641 305.18 182.932 306.286 184.672C307.391 186.412 307.82 188.486 307.496 190.52L306.122 199.032Z" fill="#815E46"/>
<path d="M265.432 322.515C264.999 325.202 266.87 327.706 269.612 328.11C272.353 328.513 274.927 326.663 275.361 323.976C275.794 321.29 273.923 318.785 271.182 318.382C268.44 317.978 265.866 319.829 265.432 322.515Z" fill="#815E46"/>
<path d="M252.757 338.078C252.323 340.764 254.195 343.269 256.936 343.673C259.678 344.076 262.252 342.226 262.685 339.539C263.119 336.853 261.248 334.348 258.506 333.945C255.764 333.541 253.19 335.392 252.757 338.078Z" fill="#815E46"/>
<path d="M232.115 340.02C231.682 342.706 233.553 345.211 236.295 345.614C239.036 346.018 241.61 344.167 242.044 341.481C242.477 338.795 240.606 336.29 237.864 335.886C235.123 335.483 232.549 337.334 232.115 340.02Z" fill="#815E46"/>
<path d="M256.289 316.19C256.031 317.787 255.455 319.321 254.593 320.705C253.732 322.088 252.601 323.294 251.267 324.254C249.932 325.213 248.419 325.908 246.815 326.297C245.211 326.687 243.546 326.764 241.916 326.524L233.229 325.245C231.153 324.939 229.263 323.914 227.902 322.357C226.541 320.8 225.799 318.812 225.81 316.755C225.821 314.698 226.584 312.707 227.962 311.143C229.339 309.579 231.24 308.545 233.319 308.229C236.904 307.694 239.495 305.834 241.093 302.65C242.026 300.801 243.603 299.335 245.537 298.517C247.47 297.699 249.634 297.584 251.637 298.191C253.639 298.799 255.347 300.09 256.452 301.83C257.558 303.57 257.987 305.644 257.663 307.678L256.289 316.19Z" fill="#815E46"/>
<path d="M532.349 502.652C531.931 505.316 533.812 507.805 536.551 508.211C539.29 508.617 541.849 506.787 542.267 504.123C542.685 501.459 540.804 498.97 538.065 498.564C535.326 498.158 532.767 499.988 532.349 502.652Z" fill="#815E46"/>
<path d="M519.782 518.063C519.364 520.727 521.246 523.216 523.985 523.622C526.724 524.028 529.283 522.198 529.701 519.534C530.118 516.87 528.237 514.381 525.498 513.975C522.759 513.569 520.2 515.399 519.782 518.063Z" fill="#815E46"/>
<path d="M499.188 519.944C498.771 522.608 500.652 525.097 503.391 525.503C506.13 525.91 508.689 524.079 509.107 521.415C509.525 518.752 507.643 516.263 504.904 515.856C502.165 515.45 499.606 517.28 499.188 519.944Z" fill="#815E46"/>
<path d="M523.187 496.357C522.939 497.941 522.372 499.461 521.519 500.832C520.667 502.203 519.545 503.396 518.218 504.345C516.891 505.294 515.385 505.98 513.786 506.363C512.187 506.746 510.525 506.819 508.897 506.577L500.219 505.29C498.145 504.982 496.253 503.961 494.886 502.413C493.519 500.865 492.767 498.892 492.766 496.851C492.766 494.811 493.517 492.837 494.883 491.289C496.25 489.74 498.141 488.718 500.215 488.409C503.79 487.886 506.366 486.047 507.944 482.892C508.865 481.06 510.431 479.609 512.357 478.802C514.283 477.995 516.442 477.885 518.444 478.492C520.446 479.099 522.158 480.383 523.271 482.112C524.384 483.84 524.824 485.899 524.511 487.916L523.187 496.357Z" fill="#815E46"/>
<path d="M483.252 618.768C482.834 621.432 484.715 623.921 487.454 624.327C490.193 624.733 492.752 622.903 493.17 620.239C493.588 617.575 491.706 615.086 488.968 614.68C486.229 614.274 483.67 616.104 483.252 618.768Z" fill="#AD7F58"/>
<path d="M470.685 634.179C470.267 636.843 472.149 639.332 474.888 639.738C477.626 640.144 480.186 638.314 480.603 635.65C481.021 632.986 479.14 630.497 476.401 630.091C473.662 629.685 471.103 631.515 470.685 634.179Z" fill="#AD7F58"/>
<path d="M450.091 636.06C449.674 638.724 451.555 641.213 454.294 641.619C457.033 642.026 459.592 640.195 460.01 637.531C460.428 634.867 458.546 632.379 455.807 631.972C453.068 631.566 450.509 633.396 450.091 636.06Z" fill="#AD7F58"/>
<path d="M474.09 612.473C473.841 614.057 473.275 615.577 472.422 616.948C471.57 618.319 470.448 619.512 469.121 620.461C467.794 621.41 466.288 622.096 464.689 622.479C463.089 622.862 461.428 622.935 459.8 622.693L451.122 621.406C449.048 621.098 447.156 620.077 445.789 618.529C444.422 616.981 443.67 615.008 443.669 612.967C443.669 610.927 444.42 608.953 445.786 607.405C447.153 605.856 449.044 604.834 451.118 604.525C454.693 604.002 457.269 602.163 458.847 599.008C459.768 597.176 461.334 595.725 463.26 594.918C465.185 594.111 467.345 594.001 469.347 594.608C471.349 595.215 473.061 596.499 474.174 598.227C475.287 599.956 475.727 602.015 475.414 604.032L474.09 612.473Z" fill="#AD7F58"/>
<path d="M620.014 763.634C618.57 765.934 619.315 768.937 621.679 770.341C624.044 771.746 627.131 771.02 628.576 768.721C630.021 766.421 629.276 763.418 626.911 762.014C624.547 760.609 621.459 761.335 620.014 763.634Z" fill="#815E46"/>
<path d="M602.297 773.121C600.852 775.421 601.597 778.423 603.961 779.828C606.326 781.233 609.413 780.507 610.858 778.207C612.303 775.908 611.558 772.905 609.193 771.501C606.829 770.096 603.741 770.821 602.297 773.121Z" fill="#815E46"/>
<path d="M582.557 767.112C581.112 769.412 581.858 772.414 584.222 773.819C586.586 775.224 589.674 774.498 591.119 772.198C592.564 769.899 591.818 766.896 589.454 765.492C587.09 764.087 584.002 764.812 582.557 767.112Z" fill="#815E46"/>
<path d="M614.069 754.384C613.21 755.751 612.083 756.94 610.751 757.884C609.42 758.827 607.911 759.506 606.31 759.883C604.708 760.259 603.047 760.325 601.42 760.076C599.793 759.828 598.232 759.271 596.826 758.436L589.335 753.985C587.545 752.921 586.206 751.268 585.561 749.327C584.916 747.385 585.007 745.283 585.818 743.401C586.629 741.519 588.107 739.981 589.983 739.067C591.859 738.153 594.009 737.922 596.045 738.416C599.55 739.279 602.657 738.551 605.366 736.235C606.945 734.892 608.965 734.142 611.063 734.122C613.16 734.102 615.195 734.812 616.799 736.125C618.404 737.438 619.473 739.266 619.811 741.278C620.15 743.291 619.737 745.355 618.647 747.098L614.069 754.384Z" fill="#815E46"/>
<path d="M562.841 850.79C561.673 853.234 562.764 856.135 565.276 857.27C567.789 858.406 570.772 857.345 571.94 854.901C573.108 852.457 572.017 849.555 569.505 848.42C566.992 847.285 564.009 848.346 562.841 850.79Z" fill="#AD7F58"/>
<path d="M546.342 862.167C545.174 864.611 546.265 867.512 548.777 868.647C551.29 869.783 554.273 868.722 555.441 866.278C556.609 863.834 555.518 860.932 553.006 859.797C550.493 858.662 547.51 859.723 546.342 862.167Z" fill="#AD7F58"/>
<path d="M526.03 858.371C524.862 860.814 525.952 863.716 528.465 864.851C530.978 865.986 533.961 864.925 535.129 862.481C536.296 860.037 535.206 857.136 532.693 856.001C530.181 854.866 527.197 855.927 526.03 858.371Z" fill="#AD7F58"/>
<path d="M555.856 842.254C555.162 843.707 554.18 845.013 552.968 846.097C551.755 847.181 550.334 848.022 548.787 848.572C547.24 849.122 545.597 849.37 543.952 849.303C542.306 849.235 540.69 848.853 539.197 848.178L531.235 844.582C529.332 843.721 527.81 842.227 526.943 840.369C526.076 838.511 525.921 836.412 526.508 834.453C527.095 832.493 528.384 830.803 530.141 829.688C531.899 828.573 534.008 828.107 536.088 828.374C539.671 828.845 542.674 827.78 545.096 825.18C546.508 823.672 548.428 822.704 550.509 822.453C552.59 822.203 554.695 822.684 556.442 823.812C558.19 824.939 559.464 826.638 560.035 828.6C560.607 830.563 560.436 832.659 559.556 834.51L555.856 842.254Z" fill="#AD7F58"/>
<path d="M393.566 290.244C393.522 292.938 395.732 295.157 398.502 295.2C401.273 295.242 403.554 293.093 403.598 290.398C403.642 287.704 401.432 285.485 398.661 285.442C395.891 285.4 393.61 287.549 393.566 290.244Z" fill="#B88C67"/>
<path d="M383.256 307.165C383.212 309.859 385.422 312.078 388.192 312.121C390.962 312.163 393.244 310.014 393.288 307.319C393.332 304.625 391.121 302.406 388.351 302.363C385.581 302.32 383.3 304.47 383.256 307.165Z" fill="#B88C67"/>
<path d="M363.112 311.734C363.069 314.429 365.279 316.647 368.049 316.69C370.819 316.733 373.1 314.583 373.144 311.889C373.188 309.194 370.978 306.975 368.208 306.933C365.438 306.89 363.156 309.04 363.112 311.734Z" fill="#B88C67"/>
<path d="M383.614 285.21C383.587 286.812 383.237 288.393 382.583 289.863C381.929 291.333 380.983 292.664 379.8 293.778C378.617 294.893 377.22 295.77 375.689 296.359C374.157 296.949 372.522 297.239 370.875 297.214L362.097 297.079C359.999 297.046 357.983 296.283 356.413 294.929C354.844 293.575 353.825 291.719 353.541 289.697C353.257 287.675 353.727 285.621 354.865 283.907C356.004 282.193 357.736 280.932 359.748 280.353C363.218 279.366 365.515 277.205 366.639 273.871C367.298 271.935 368.647 270.292 370.443 269.239C372.239 268.186 374.364 267.793 376.432 268.132C378.5 268.47 380.375 269.518 381.717 271.084C383.06 272.651 383.782 274.633 383.753 276.673L383.614 285.21Z" fill="#B88C67"/>
<path d="M361.053 411.745C361.009 414.44 363.219 416.659 365.989 416.701C368.759 416.744 371.041 414.594 371.084 411.9C371.128 409.206 368.918 406.987 366.148 406.944C363.378 406.901 361.096 409.051 361.053 411.745Z" fill="#815E46"/>
<path d="M350.742 428.666C350.698 431.361 352.909 433.58 355.679 433.622C358.449 433.665 360.73 431.515 360.774 428.821C360.818 426.126 358.608 423.908 355.838 423.865C353.068 423.822 350.786 425.972 350.742 428.666Z" fill="#815E46"/>
<path d="M330.599 433.236C330.555 435.93 332.765 438.149 335.535 438.192C338.306 438.235 340.587 436.085 340.631 433.39C340.675 430.696 338.465 428.477 335.694 428.434C332.924 428.392 330.643 430.541 330.599 433.236Z" fill="#815E46"/>
<path d="M351.1 406.712C351.074 408.314 350.724 409.895 350.07 411.365C349.415 412.835 348.47 414.165 347.287 415.28C346.104 416.395 344.707 417.272 343.175 417.861C341.644 418.451 340.008 418.741 338.361 418.716L329.584 418.58C327.486 418.547 325.469 417.785 323.9 416.431C322.33 415.076 321.311 413.22 321.027 411.198C320.743 409.176 321.213 407.123 322.352 405.409C323.491 403.695 325.223 402.434 327.235 401.855C330.704 400.867 333.001 398.707 334.126 395.373C334.784 393.437 336.134 391.793 337.93 390.741C339.726 389.688 341.85 389.295 343.918 389.634C345.986 389.972 347.861 391.019 349.204 392.586C350.547 394.153 351.269 396.135 351.239 398.174L351.1 406.712Z" fill="#815E46"/>
<path d="M477.639 411.32C477.092 413.871 478.832 416.427 481.524 417.028C484.216 417.629 486.842 416.049 487.389 413.498C487.935 410.947 486.196 408.391 483.504 407.79C480.811 407.189 478.186 408.769 477.639 411.32Z" fill="#AD7F58"/>
<path d="M464.425 425.31C463.878 427.861 465.617 430.416 468.31 431.017C471.002 431.619 473.628 430.038 474.174 427.487C474.721 424.936 472.982 422.38 470.29 421.779C467.597 421.178 464.972 422.758 464.425 425.31Z" fill="#AD7F58"/>
<path d="M443.936 425.574C443.389 428.125 445.128 430.68 447.821 431.281C450.513 431.883 453.139 430.302 453.685 427.751C454.232 425.2 452.493 422.645 449.8 422.043C447.108 421.442 444.482 423.023 443.936 425.574Z" fill="#AD7F58"/>
<path d="M468.879 404.524C468.554 406.04 467.917 407.471 467.005 408.736C466.092 410 464.921 411.072 463.56 411.892C462.198 412.711 460.673 413.262 459.07 413.512C457.467 413.762 455.818 413.707 454.218 413.349L445.687 411.444C443.648 410.988 441.825 409.855 440.549 408.251C439.272 406.647 438.626 404.677 438.727 402.699C438.828 400.72 439.671 398.864 441.101 397.466C442.532 396.068 444.456 395.221 446.525 395.078C450.092 394.842 452.735 393.254 454.455 390.315C455.458 388.608 457.081 387.32 459.029 386.683C460.976 386.047 463.12 386.104 465.073 386.844C467.025 387.584 468.657 388.959 469.673 390.719C470.689 392.479 471.022 394.509 470.612 396.44L468.879 404.524Z" fill="#AD7F58"/>
<path d="M423.224 520.176C422.677 522.727 424.417 525.282 427.109 525.884C429.801 526.485 432.427 524.904 432.974 522.353C433.52 519.802 431.781 517.247 429.089 516.646C426.396 516.044 423.771 517.625 423.224 520.176Z" fill="#815E46"/>
<path d="M410.01 534.165C409.463 536.716 411.202 539.272 413.895 539.873C416.587 540.474 419.213 538.894 419.759 536.343C420.306 533.792 418.567 531.236 415.874 530.635C413.182 530.034 410.556 531.614 410.01 534.165Z" fill="#815E46"/>
<path d="M389.521 534.429C388.974 536.98 390.713 539.536 393.406 540.137C396.098 540.738 398.724 539.158 399.27 536.607C399.817 534.056 398.078 531.5 395.385 530.899C392.693 530.298 390.067 531.878 389.521 534.429Z" fill="#815E46"/>
<path d="M414.464 513.379C414.139 514.896 413.502 516.327 412.59 517.591C411.677 518.855 410.506 519.928 409.145 520.748C407.783 521.567 406.258 522.118 404.655 522.368C403.052 522.618 401.403 522.563 399.803 522.205L391.272 520.3C389.233 519.844 387.41 518.711 386.134 517.107C384.857 515.503 384.211 513.533 384.312 511.554C384.413 509.576 385.256 507.72 386.686 506.322C388.116 504.924 390.041 504.077 392.11 503.934C395.677 503.698 398.32 502.11 400.04 499.17C401.043 497.464 402.666 496.176 404.614 495.539C406.561 494.902 408.705 494.959 410.658 495.7C412.61 496.44 414.242 497.814 415.258 499.574C416.274 501.335 416.607 503.364 416.197 505.296L414.464 513.379Z" fill="#815E46"/>
<path d="M591.058 672.018C590.038 674.524 591.3 677.358 593.877 678.349C596.453 679.341 599.368 678.113 600.387 675.607C601.407 673.101 600.145 670.266 597.569 669.275C594.992 668.284 592.077 669.512 591.058 672.018Z" fill="#815E46"/>
<path d="M575.267 684.309C574.248 686.814 575.51 689.649 578.086 690.64C580.663 691.631 583.578 690.404 584.597 687.898C585.617 685.392 584.354 682.557 581.778 681.566C579.202 680.575 576.287 681.803 575.267 684.309Z" fill="#815E46"/>
<path d="M554.762 681.668C553.743 684.173 555.005 687.008 557.581 687.999C560.157 688.99 563.072 687.762 564.092 685.257C565.111 682.751 563.849 679.916 561.273 678.925C558.697 677.934 555.782 679.162 554.762 681.668Z" fill="#815E46"/>
<path d="M583.574 663.891C582.968 665.381 582.067 666.74 580.921 667.891C579.775 669.041 578.407 669.961 576.895 670.598C575.384 671.235 573.758 671.576 572.112 671.601C570.465 671.627 568.829 671.337 567.297 670.748L559.134 667.607C557.183 666.856 555.574 665.45 554.597 663.645C553.62 661.839 553.341 659.752 553.81 657.763C554.278 655.774 555.464 654.014 557.151 652.801C558.839 651.588 560.917 651.004 563.01 651.153C566.615 651.42 569.548 650.187 571.811 647.455C573.13 645.869 574.989 644.795 577.052 644.427C579.115 644.058 581.245 644.42 583.057 645.447C584.868 646.474 586.242 648.098 586.93 650.024C587.617 651.951 587.573 654.054 586.805 655.951L583.574 663.891Z" fill="#815E46"/>
<path d="M511.83 750.351C510.81 752.857 512.072 755.692 514.649 756.683C517.225 757.674 520.14 756.446 521.159 753.94C522.179 751.435 520.917 748.6 518.341 747.609C515.764 746.618 512.849 747.845 511.83 750.351Z" fill="#815E46"/>
<path d="M496.039 762.642C495.02 765.148 496.282 767.983 498.858 768.974C501.434 769.965 504.349 768.737 505.369 766.231C506.388 763.725 505.126 760.891 502.55 759.9C499.974 758.908 497.059 760.136 496.039 762.642Z" fill="#815E46"/>
<path d="M475.534 760.001C474.515 762.507 475.777 765.342 478.353 766.333C480.929 767.324 483.844 766.096 484.864 763.59C485.883 761.084 484.621 758.25 482.045 757.258C479.469 756.267 476.554 757.495 475.534 760.001Z" fill="#815E46"/>
<path d="M504.346 742.225C503.74 743.715 502.838 745.073 501.692 746.224C500.546 747.375 499.179 748.295 497.667 748.932C496.156 749.568 494.53 749.909 492.883 749.935C491.237 749.961 489.601 749.671 488.069 749.081L479.906 745.941C477.955 745.19 476.346 743.784 475.369 741.978C474.392 740.172 474.113 738.086 474.581 736.097C475.05 734.107 476.235 732.347 477.923 731.135C479.611 729.922 481.689 729.337 483.782 729.486C487.386 729.754 490.32 728.521 492.583 725.788C493.902 724.203 495.761 723.128 497.824 722.76C499.887 722.392 502.017 722.754 503.828 723.781C505.64 724.807 507.014 726.431 507.702 728.358C508.389 730.285 508.345 732.387 507.577 734.285L504.346 742.225Z" fill="#815E46"/>
<path d="M654.243 868.783C652.73 871.04 653.385 874.063 655.707 875.534C658.028 877.005 661.136 876.367 662.649 874.109C664.162 871.851 663.507 868.829 661.186 867.358C658.864 865.887 655.756 866.525 654.243 868.783Z" fill="#815E46"/>
<path d="M636.249 877.764C634.736 880.022 635.391 883.044 637.712 884.515C640.034 885.986 643.142 885.348 644.655 883.091C646.168 880.833 645.513 877.81 643.191 876.339C640.87 874.868 637.762 875.506 636.249 877.764Z" fill="#815E46"/>
<path d="M616.698 871.199C615.185 873.457 615.84 876.479 618.161 877.95C620.482 879.421 623.59 878.783 625.103 876.526C626.616 874.268 625.961 871.245 623.64 869.774C621.319 868.303 618.211 868.941 616.698 871.199Z" fill="#815E46"/>
<path d="M648.577 859.368C647.677 860.71 646.515 861.867 645.156 862.772C643.797 863.678 642.268 864.314 640.656 864.645C639.045 864.975 637.382 864.994 635.763 864.7C634.144 864.406 632.6 863.804 631.221 862.93L623.865 858.269C622.108 857.155 620.819 855.465 620.232 853.506C619.646 851.547 619.8 849.448 620.667 847.59C621.534 845.732 623.057 844.237 624.96 843.376C626.862 842.515 629.019 842.345 631.039 842.897C634.516 843.858 637.644 843.219 640.421 840.98C642.039 839.682 644.081 838.99 646.178 839.03C648.275 839.069 650.288 839.837 651.853 841.194C653.418 842.552 654.431 844.409 654.709 846.43C654.988 848.452 654.513 850.504 653.371 852.214L648.577 859.368Z" fill="#815E46"/>
<path d="M560.175 954.777C558.662 957.035 559.317 960.058 561.638 961.528C563.959 962.999 567.068 962.361 568.581 960.104C570.094 957.846 569.438 954.823 567.117 953.353C564.796 951.882 561.688 952.52 560.175 954.777Z" fill="#815E46"/>
<path d="M542.18 963.759C540.667 966.016 541.323 969.039 543.644 970.51C545.965 971.981 549.073 971.343 550.586 969.085C552.099 966.827 551.444 963.805 549.123 962.334C546.802 960.863 543.693 961.501 542.18 963.759Z" fill="#815E46"/>
<path d="M522.629 957.194C521.116 959.451 521.771 962.474 524.093 963.945C526.414 965.416 529.522 964.778 531.035 962.52C532.548 960.262 531.893 957.24 529.572 955.769C527.25 954.298 524.142 954.936 522.629 957.194Z" fill="#815E46"/>
<path d="M554.508 945.363C553.609 946.705 552.447 947.862 551.088 948.767C549.729 949.672 548.2 950.309 546.588 950.639C544.976 950.97 543.313 950.989 541.694 950.695C540.075 950.4 538.532 949.799 537.152 948.925L529.797 944.264C528.039 943.15 526.751 941.46 526.164 939.501C525.577 937.542 525.731 935.443 526.599 933.585C527.466 931.726 528.989 930.231 530.891 929.371C532.794 928.51 534.95 928.34 536.97 928.892C540.448 929.853 543.575 929.214 546.353 926.975C547.971 925.677 550.013 924.985 552.11 925.024C554.207 925.063 556.219 925.831 557.784 927.189C559.349 928.546 560.362 930.404 560.641 932.425C560.919 934.446 560.445 936.498 559.302 938.209L554.508 945.363Z" fill="#815E46"/>
<path d="M650.293 1010.88C648.78 1013.14 649.435 1016.16 651.756 1017.63C654.077 1019.1 657.186 1018.46 658.699 1016.21C660.212 1013.95 659.556 1010.93 657.235 1009.46C654.914 1007.98 651.806 1008.62 650.293 1010.88Z" fill="#AD7F58"/>
<path d="M632.298 1019.86C630.785 1022.12 631.441 1025.14 633.762 1026.61C636.083 1028.08 639.191 1027.45 640.704 1025.19C642.217 1022.93 641.562 1019.91 639.241 1018.44C636.92 1016.97 633.811 1017.6 632.298 1019.86Z" fill="#AD7F58"/>
<path d="M612.747 1013.3C611.234 1015.55 611.889 1018.58 614.211 1020.05C616.532 1021.52 619.64 1020.88 621.153 1018.62C622.666 1016.37 622.011 1013.34 619.69 1011.87C617.368 1010.4 614.26 1011.04 612.747 1013.3Z" fill="#AD7F58"/>
<path d="M644.626 1001.47C643.727 1002.81 642.565 1003.96 641.206 1004.87C639.847 1005.78 638.318 1006.41 636.706 1006.74C635.094 1007.07 633.431 1007.09 631.812 1006.8C630.193 1006.5 628.65 1005.9 627.27 1005.03L619.915 1000.37C618.158 999.252 616.869 997.563 616.282 995.604C615.695 993.645 615.85 991.546 616.717 989.688C617.584 987.829 619.107 986.334 621.009 985.473C622.912 984.612 625.068 984.443 627.088 984.994C630.566 985.956 633.693 985.317 636.471 983.078C638.089 981.78 640.131 981.088 642.228 981.127C644.325 981.166 646.338 981.934 647.902 983.292C649.467 984.649 650.48 986.507 650.759 988.528C651.037 990.549 650.563 992.601 649.421 994.312L644.626 1001.47Z" fill="#AD7F58"/>
<path d="M556.224 1096.87C554.711 1099.13 555.366 1102.16 557.688 1103.63C560.009 1105.1 563.117 1104.46 564.63 1102.2C566.143 1099.94 565.488 1096.92 563.167 1095.45C560.846 1093.98 557.737 1094.62 556.224 1096.87Z" fill="#815E46"/>
<path d="M538.23 1105.86C536.717 1108.11 537.372 1111.14 539.693 1112.61C542.015 1114.08 545.123 1113.44 546.636 1111.18C548.149 1108.92 547.494 1105.9 545.172 1104.43C542.851 1102.96 539.743 1103.6 538.23 1105.86Z" fill="#815E46"/>
<path d="M518.679 1099.29C517.166 1101.55 517.821 1104.57 520.142 1106.04C522.463 1107.51 525.572 1106.88 527.085 1104.62C528.598 1102.36 527.942 1099.34 525.621 1097.87C523.3 1096.4 520.192 1097.03 518.679 1099.29Z" fill="#815E46"/>
<path d="M550.558 1087.46C549.658 1088.8 548.496 1089.96 547.137 1090.86C545.778 1091.77 544.249 1092.41 542.637 1092.74C541.026 1093.07 539.363 1093.09 537.744 1092.79C536.125 1092.5 534.582 1091.9 533.202 1091.02L525.846 1086.36C524.089 1085.25 522.8 1083.56 522.214 1081.6C521.627 1079.64 521.781 1077.54 522.648 1075.68C523.515 1073.82 525.038 1072.33 526.941 1071.47C528.843 1070.61 531 1070.44 533.02 1070.99C536.497 1071.95 539.625 1071.31 542.402 1069.07C544.02 1067.77 546.063 1067.08 548.159 1067.12C550.256 1067.16 552.269 1067.93 553.834 1069.29C555.399 1070.64 556.412 1072.5 556.69 1074.52C556.969 1076.54 556.494 1078.6 555.352 1080.31L550.558 1087.46Z" fill="#815E46"/>
</svg>
