<svg width="760" height="1994" viewBox="0 0 760 1994" fill="none" xmlns="http://www.w3.org/2000/svg">
<path d="M651.579 24.7588C650.778 27.3386 647.979 28.7991 645.326 28.0207C642.674 27.2424 641.173 24.52 641.973 21.9401C642.774 19.3603 645.573 17.8999 648.226 18.6782C650.878 19.4566 652.379 22.1789 651.579 24.7588Z" fill="#815E46"/>
<path d="M656.11 43.9268C655.309 46.5067 652.51 47.9671 649.858 47.1887C647.205 46.4104 645.704 43.688 646.505 41.1082C647.305 38.5283 650.105 37.0679 652.757 37.8462C655.409 38.6246 656.911 41.347 656.11 43.9268Z" fill="#815E46"/>
<path d="M673.871 54.2354C673.07 56.8152 670.271 58.2756 667.619 57.4973C664.966 56.7189 663.465 53.9966 664.266 51.4167C665.066 48.8369 667.865 47.3764 670.518 48.1548C673.17 48.9331 674.672 51.6555 673.871 54.2354Z" fill="#815E46"/>
<path d="M662.634 22.9062C662.158 24.4398 661.997 26.0495 662.161 27.6434C662.324 29.2373 662.809 30.7842 663.588 32.1958C664.366 33.6074 665.423 34.856 666.697 35.8704C667.972 36.8847 669.439 37.6449 671.016 38.1076L679.421 40.574C681.429 41.1627 683.589 41.0323 685.507 40.2063C687.426 39.3803 688.977 37.9133 689.88 36.0711C690.783 34.2289 690.977 32.1332 690.428 30.1637C689.88 28.1942 688.624 26.4811 686.888 25.3347C683.891 23.368 682.379 20.6306 682.35 17.1224C682.328 15.0829 681.556 13.1184 680.174 11.5845C678.792 10.0506 676.891 9.04849 674.816 8.75958C672.74 8.47067 670.626 8.91403 668.857 10.0094C667.088 11.1048 665.78 12.7799 665.171 14.7315L662.634 22.9062Z" fill="#815E46"/>
<path d="M644.579 150.198C643.778 152.778 640.979 154.238 638.326 153.46C635.674 152.681 634.173 149.959 634.973 147.379C635.774 144.799 638.573 143.339 641.226 144.117C643.878 144.895 645.379 147.618 644.579 150.198Z" fill="#815E46"/>
<path d="M649.11 169.366C648.31 171.946 645.51 173.406 642.858 172.628C640.205 171.849 638.704 169.127 639.505 166.547C640.305 163.967 643.105 162.507 645.757 163.285C648.41 164.063 649.911 166.786 649.11 169.366Z" fill="#815E46"/>
<path d="M666.871 179.674C666.07 182.254 663.271 183.715 660.619 182.936C657.966 182.158 656.465 179.435 657.266 176.856C658.066 174.276 660.866 172.815 663.518 173.594C666.171 174.372 667.672 177.094 666.871 179.674Z" fill="#815E46"/>
<path d="M655.634 148.345C655.158 149.879 654.997 151.488 655.161 153.082C655.325 154.676 655.809 156.223 656.588 157.635C657.366 159.046 658.423 160.295 659.697 161.309C660.972 162.324 662.439 163.084 664.016 163.547L672.421 166.013C674.43 166.602 676.589 166.471 678.508 165.645C680.426 164.819 681.978 163.352 682.88 161.51C683.783 159.668 683.977 157.572 683.429 155.603C682.88 153.633 681.624 151.92 679.888 150.774C676.892 148.807 675.379 146.07 675.35 142.561C675.328 140.522 674.556 138.557 673.174 137.023C671.793 135.489 669.892 134.487 667.816 134.198C665.74 133.91 663.626 134.353 661.857 135.448C660.088 136.544 658.78 138.219 658.171 140.17L655.634 148.345Z" fill="#815E46"/>
<path d="M520.579 189.094C519.778 191.673 516.979 193.134 514.326 192.355C511.674 191.577 510.173 188.855 510.973 186.275C511.774 183.695 514.573 182.235 517.226 183.013C519.878 183.791 521.379 186.514 520.579 189.094Z" fill="#815E46"/>
<path d="M525.11 208.262C524.309 210.841 521.51 212.302 518.858 211.523C516.205 210.745 514.704 208.023 515.505 205.443C516.305 202.863 519.105 201.403 521.757 202.181C524.409 202.959 525.911 205.682 525.11 208.262Z" fill="#815E46"/>
<path d="M542.871 218.57C542.07 221.15 539.271 222.61 536.619 221.832C533.966 221.054 532.465 218.331 533.266 215.751C534.066 213.172 536.865 211.711 539.518 212.49C542.17 213.268 543.672 215.99 542.871 218.57Z" fill="#815E46"/>
<path d="M531.634 187.241C531.158 188.775 530.997 190.384 531.161 191.978C531.324 193.572 531.809 195.119 532.588 196.531C533.366 197.942 534.423 199.191 535.697 200.205C536.972 201.219 538.439 201.98 540.016 202.442L548.421 204.909C550.429 205.497 552.589 205.367 554.507 204.541C556.426 203.715 557.977 202.248 558.88 200.406C559.783 198.564 559.977 196.468 559.428 194.498C558.88 192.529 557.624 190.816 555.888 189.669C552.891 187.703 551.379 184.965 551.35 181.457C551.328 179.418 550.556 177.453 549.174 175.919C547.792 174.385 545.891 173.383 543.816 173.094C541.74 172.805 539.626 173.249 537.857 174.344C536.088 175.44 534.78 177.115 534.171 179.066L531.634 187.241Z" fill="#815E46"/>
<path d="M513.579 314.062C512.778 316.642 509.979 318.103 507.326 317.324C504.674 316.546 503.173 313.824 503.973 311.244C504.774 308.664 507.573 307.203 510.226 307.982C512.878 308.76 514.379 311.482 513.579 314.062Z" fill="#AD7F58"/>
<path d="M518.11 333.23C517.31 335.81 514.51 337.271 511.858 336.492C509.205 335.714 507.704 332.992 508.505 330.412C509.305 327.832 512.105 326.371 514.757 327.15C517.41 327.928 518.911 330.65 518.11 333.23Z" fill="#AD7F58"/>
<path d="M535.871 343.539C535.07 346.119 532.271 347.579 529.619 346.801C526.966 346.022 525.465 343.3 526.266 340.72C527.066 338.14 529.866 336.68 532.518 337.458C535.171 338.237 536.672 340.959 535.871 343.539Z" fill="#AD7F58"/>
<path d="M524.634 312.21C524.158 313.743 523.997 315.353 524.161 316.947C524.325 318.541 524.809 320.088 525.588 321.499C526.366 322.911 527.423 324.16 528.697 325.174C529.972 326.188 531.439 326.948 533.016 327.411L541.421 329.877C543.43 330.466 545.589 330.336 547.508 329.51C549.426 328.684 550.978 327.217 551.88 325.375C552.783 323.532 552.977 321.437 552.429 319.467C551.88 317.498 550.624 315.785 548.888 314.638C545.892 312.672 544.379 309.934 544.35 306.426C544.328 304.386 543.556 302.422 542.174 300.888C540.793 299.354 538.892 298.352 536.816 298.063C534.74 297.774 532.626 298.218 530.857 299.313C529.088 300.408 527.78 302.083 527.171 304.035L524.634 312.21Z" fill="#AD7F58"/>
<path d="M385.345 332.431C384.032 334.804 380.99 335.694 378.55 334.417C376.11 333.141 375.196 330.182 376.509 327.809C377.822 325.436 380.865 324.547 383.305 325.823C385.744 327.1 386.658 330.058 385.345 332.431Z" fill="#815E46"/>
<path d="M385.86 352.093C384.547 354.466 381.505 355.355 379.065 354.079C376.625 352.802 375.712 349.844 377.025 347.471C378.338 345.098 381.38 344.208 383.82 345.485C386.26 346.761 387.173 349.72 385.86 352.093Z" fill="#815E46"/>
<path d="M401.155 365.634C399.842 368.007 396.799 368.896 394.359 367.62C391.919 366.344 391.006 363.385 392.319 361.012C393.632 358.639 396.674 357.75 399.114 359.026C401.554 360.302 402.467 363.261 401.155 365.634Z" fill="#815E46"/>
<path d="M396.558 332.756C395.778 334.167 395.291 335.714 395.125 337.307C394.958 338.901 395.117 340.511 395.591 342.045C396.064 343.579 396.844 345.007 397.885 346.248C398.927 347.489 400.209 348.518 401.66 349.277L409.391 353.321C411.239 354.287 413.382 354.577 415.431 354.139C417.48 353.701 419.301 352.564 420.563 350.934C421.825 349.303 422.445 347.287 422.31 345.251C422.176 343.214 421.296 341.292 419.829 339.833C417.296 337.325 416.374 334.35 417.064 330.906C417.46 328.903 417.106 326.829 416.066 325.058C415.026 323.287 413.368 321.937 411.393 321.252C409.418 320.567 407.256 320.592 405.298 321.323C403.34 322.054 401.715 323.442 400.718 325.237L396.558 332.756Z" fill="#815E46"/>
<path d="M352.797 453.924C351.484 456.297 348.442 457.186 346.002 455.91C343.562 454.633 342.648 451.675 343.961 449.302C345.274 446.929 348.316 446.04 350.756 447.316C353.196 448.592 354.11 451.551 352.797 453.924Z" fill="#815E46"/>
<path d="M353.312 473.586C351.999 475.959 348.957 476.848 346.517 475.571C344.077 474.295 343.163 471.337 344.476 468.963C345.789 466.59 348.832 465.701 351.271 466.977C353.711 468.254 354.625 471.212 353.312 473.586Z" fill="#815E46"/>
<path d="M368.606 487.127C367.293 489.5 364.251 490.389 361.811 489.113C359.371 487.836 358.458 484.878 359.77 482.505C361.083 480.132 364.126 479.242 366.566 480.519C369.006 481.795 369.919 484.754 368.606 487.127Z" fill="#815E46"/>
<path d="M364.01 454.249C363.229 455.66 362.742 457.206 362.576 458.8C362.41 460.394 362.569 462.003 363.042 463.537C363.516 465.071 364.296 466.5 365.337 467.741C366.378 468.981 367.661 470.011 369.111 470.769L376.843 474.814C378.691 475.78 380.833 476.07 382.883 475.632C384.932 475.194 386.753 474.057 388.015 472.426C389.276 470.796 389.896 468.78 389.762 466.743C389.627 464.707 388.747 462.785 387.281 461.326C384.747 458.818 383.825 455.843 384.515 452.399C384.912 450.396 384.558 448.322 383.518 446.551C382.478 444.78 380.82 443.43 378.845 442.745C376.87 442.06 374.708 442.085 372.75 442.816C370.792 443.547 369.167 444.935 368.17 446.729L364.01 454.249Z" fill="#815E46"/>
<path d="M195.839 474.2C196.28 476.86 194.421 479.365 191.686 479.794C188.951 480.223 186.376 478.415 185.934 475.755C185.492 473.094 187.352 470.59 190.087 470.16C192.822 469.731 195.397 471.539 195.839 474.2Z" fill="#815E46"/>
<path d="M208.543 489.504C208.984 492.165 207.125 494.669 204.39 495.099C201.654 495.528 199.079 493.72 198.638 491.059C198.196 488.399 200.055 485.894 202.79 485.465C205.526 485.036 208.101 486.844 208.543 489.504Z" fill="#815E46"/>
<path d="M229.152 491.212C229.594 493.872 227.734 496.377 224.999 496.806C222.264 497.236 219.689 495.427 219.247 492.767C218.805 490.106 220.665 487.602 223.4 487.172C226.135 486.743 228.71 488.552 229.152 491.212Z" fill="#815E46"/>
<path d="M204.944 467.828C205.207 469.41 205.787 470.925 206.652 472.289C207.516 473.652 208.649 474.836 209.984 475.774C211.319 476.712 212.832 477.385 214.434 477.754C216.037 478.124 217.699 478.182 219.324 477.927L227.991 476.567C230.062 476.241 231.945 475.205 233.298 473.645C234.652 472.086 235.386 470.106 235.368 468.066C235.35 466.025 234.582 464.058 233.201 462.521C231.821 460.984 229.921 459.978 227.844 459.687C224.265 459.194 221.672 457.377 220.067 454.235C219.129 452.411 217.551 450.973 215.618 450.182C213.685 449.391 211.524 449.299 209.528 449.923C207.531 450.547 205.831 451.846 204.733 453.584C203.636 455.322 203.214 457.384 203.545 459.398L204.944 467.828Z" fill="#815E46"/>
<path d="M245.97 589.897C246.411 592.558 244.552 595.062 241.817 595.492C239.082 595.921 236.506 594.113 236.065 591.452C235.623 588.792 237.482 586.287 240.217 585.858C242.953 585.429 245.528 587.237 245.97 589.897Z" fill="#AD7F58"/>
<path d="M258.673 605.202C259.115 607.862 257.256 610.367 254.52 610.796C251.785 611.226 249.21 609.417 248.768 606.757C248.327 604.096 250.186 601.592 252.921 601.163C255.656 600.733 258.232 602.542 258.673 605.202Z" fill="#AD7F58"/>
<path d="M279.283 606.91C279.724 609.57 277.865 612.075 275.13 612.504C272.395 612.933 269.819 611.125 269.378 608.464C268.936 605.804 270.796 603.299 273.531 602.87C276.266 602.441 278.841 604.249 279.283 606.91Z" fill="#AD7F58"/>
<path d="M255.075 583.526C255.337 585.107 255.918 586.623 256.782 587.986C257.647 589.35 258.78 590.534 260.115 591.472C261.45 592.41 262.962 593.082 264.565 593.452C266.168 593.821 267.829 593.88 269.455 593.625L278.122 592.264C280.193 591.939 282.076 590.902 283.429 589.343C284.782 587.783 285.516 585.804 285.499 583.763C285.481 581.723 284.712 579.756 283.332 578.219C281.952 576.682 280.052 575.676 277.975 575.384C274.395 574.892 271.803 573.074 270.197 569.933C269.26 568.108 267.681 566.671 265.748 565.88C263.815 565.089 261.655 564.997 259.659 565.621C257.662 566.245 255.961 567.543 254.864 569.281C253.766 571.019 253.345 573.082 253.676 575.096L255.075 583.526Z" fill="#AD7F58"/>
<path d="M109.839 665.762C110.28 668.422 108.421 670.927 105.686 671.356C102.951 671.785 100.376 669.977 99.9339 667.316C99.4923 664.656 101.352 662.151 104.087 661.722C106.822 661.293 109.397 663.101 109.839 665.762Z" fill="#815E46"/>
<path d="M122.543 681.066C122.984 683.727 121.125 686.231 118.39 686.661C115.654 687.09 113.079 685.281 112.638 682.621C112.196 679.961 114.055 677.456 116.79 677.027C119.526 676.597 122.101 678.406 122.543 681.066Z" fill="#815E46"/>
<path d="M143.152 682.774C143.594 685.434 141.734 687.939 138.999 688.368C136.264 688.797 133.689 686.989 133.247 684.329C132.805 681.668 134.665 679.164 137.4 678.734C140.135 678.305 142.71 680.113 143.152 682.774Z" fill="#815E46"/>
<path d="M118.944 659.39C119.207 660.971 119.787 662.487 120.652 663.85C121.516 665.214 122.649 666.398 123.984 667.336C125.319 668.274 126.832 668.947 128.434 669.316C130.037 669.685 131.699 669.744 133.324 669.489L141.991 668.129C144.062 667.803 145.945 666.766 147.298 665.207C148.652 663.647 149.386 661.668 149.368 659.628C149.35 657.587 148.582 655.62 147.201 654.083C145.821 652.546 143.921 651.54 141.844 651.248C138.265 650.756 135.672 648.939 134.067 645.797C133.129 643.972 131.551 642.535 129.618 641.744C127.685 640.953 125.524 640.861 123.528 641.485C121.531 642.109 119.831 643.408 118.733 645.145C117.636 646.883 117.214 648.946 117.545 650.96L118.944 659.39Z" fill="#815E46"/>
<path d="M159.97 781.459C160.411 784.119 158.552 786.624 155.817 787.053C153.082 787.483 150.506 785.674 150.065 783.014C149.623 780.353 151.482 777.849 154.217 777.419C156.953 776.99 159.528 778.799 159.97 781.459Z" fill="#815E46"/>
<path d="M172.673 796.764C173.115 799.424 171.256 801.929 168.52 802.358C165.785 802.787 163.21 800.979 162.768 798.318C162.327 795.658 164.186 793.153 166.921 792.724C169.656 792.295 172.232 794.103 172.673 796.764Z" fill="#815E46"/>
<path d="M193.283 798.471C193.724 801.132 191.865 803.636 189.13 804.066C186.395 804.495 183.819 802.686 183.378 800.026C182.936 797.366 184.796 794.861 187.531 794.432C190.266 794.002 192.841 795.811 193.283 798.471Z" fill="#815E46"/>
<path d="M169.075 775.087C169.337 776.669 169.918 778.185 170.782 779.548C171.647 780.911 172.78 782.096 174.115 783.033C175.45 783.971 176.962 784.644 178.565 785.013C180.168 785.383 181.829 785.442 183.455 785.186L192.122 783.826C194.193 783.5 196.076 782.464 197.429 780.904C198.782 779.345 199.516 777.366 199.499 775.325C199.481 773.285 198.712 771.318 197.332 769.78C195.952 768.243 194.052 767.238 191.975 766.946C188.395 766.453 185.803 764.636 184.197 761.494C183.26 759.67 181.681 758.232 179.748 757.441C177.815 756.65 175.655 756.559 173.659 757.183C171.662 757.807 169.961 759.105 168.864 760.843C167.766 762.581 167.345 764.644 167.676 766.658L169.075 775.087Z" fill="#815E46"/>
<path d="M41.6328 830.351C43.1043 832.634 42.3939 835.645 40.0462 837.075C37.6984 838.506 34.6023 837.814 33.1308 835.531C31.6594 833.247 32.3697 830.236 34.7175 828.806C37.0653 827.375 40.1614 828.067 41.6328 830.351Z" fill="#B88C67"/>
<path d="M59.46 839.642C60.9314 841.925 60.2211 844.936 57.8733 846.367C55.5255 847.797 52.4294 847.105 50.958 844.822C49.4865 842.538 50.1969 839.528 52.5447 838.097C54.8924 836.667 57.9885 837.358 59.46 839.642Z" fill="#B88C67"/>
<path d="M79.1284 833.416C80.5998 835.699 79.8894 838.71 77.5417 840.141C75.1939 841.571 72.0978 840.88 70.6263 838.596C69.1549 836.313 69.8653 833.302 72.213 831.871C74.5608 830.441 77.6569 831.132 79.1284 833.416Z" fill="#B88C67"/>
<path d="M47.4706 821.036C48.3453 822.393 49.4863 823.57 50.8285 824.498C52.1707 825.427 53.6878 826.09 55.2932 826.448C56.8986 826.807 58.5608 826.854 60.1849 826.588C61.809 826.322 63.3633 825.747 64.7589 824.897L72.1982 820.364C73.9757 819.28 75.2952 817.613 75.9176 815.665C76.5401 813.716 76.4243 811.615 75.5913 809.742C74.7583 807.869 73.2631 806.348 71.3766 805.454C69.4901 804.561 67.337 804.353 65.3073 804.87C61.8128 805.771 58.6974 805.078 55.961 802.792C54.3671 801.466 52.3379 800.739 50.2408 800.742C48.1436 800.745 46.117 801.477 44.5276 802.808C42.9382 804.138 41.891 805.978 41.5756 807.994C41.2602 810.01 41.6974 812.07 42.808 813.8L47.4706 821.036Z" fill="#B88C67"/>
<path d="M134.113 917.959C135.585 920.242 134.875 923.253 132.527 924.683C130.179 926.114 127.083 925.422 125.611 923.139C124.14 920.855 124.85 917.845 127.198 916.414C129.546 914.984 132.642 915.675 134.113 917.959Z" fill="#815E46"/>
<path d="M151.941 927.25C153.412 929.533 152.702 932.544 150.354 933.975C148.006 935.405 144.91 934.714 143.439 932.43C141.967 930.147 142.677 927.136 145.025 925.705C147.373 924.275 150.469 924.966 151.941 927.25Z" fill="#815E46"/>
<path d="M171.609 921.024C173.08 923.308 172.37 926.318 170.022 927.749C167.674 929.179 164.578 928.488 163.107 926.204C161.635 923.921 162.346 920.91 164.694 919.479C167.041 918.049 170.137 918.741 171.609 921.024Z" fill="#815E46"/>
<path d="M139.951 908.644C140.826 910.001 141.967 911.178 143.309 912.107C144.651 913.035 146.168 913.698 147.774 914.056C149.379 914.415 151.041 914.462 152.665 914.196C154.29 913.93 155.844 913.355 157.239 912.505L164.679 907.972C166.456 906.889 167.776 905.221 168.398 903.273C169.021 901.324 168.905 899.223 168.072 897.35C167.239 895.477 165.744 893.956 163.857 893.062C161.971 892.169 159.818 891.962 157.788 892.478C154.293 893.379 151.178 892.686 148.442 890.4C146.848 889.074 144.819 888.347 142.721 888.35C140.624 888.353 138.598 889.086 137.008 890.416C135.419 891.746 134.372 893.586 134.056 895.602C133.741 897.618 134.178 899.678 135.289 901.408L139.951 908.644Z" fill="#815E46"/>
<path d="M31.5528 1009.96C33.7586 1011.59 34.1873 1014.65 32.5102 1016.79C30.8331 1018.94 27.6854 1019.35 25.4795 1017.72C23.2736 1016.09 22.8449 1013.03 24.522 1010.89C26.1991 1008.74 29.3469 1008.32 31.5528 1009.96Z" fill="#AD7F58"/>
<path d="M51.6054 1012.53C53.8113 1014.16 54.24 1017.22 52.5629 1019.36C50.8858 1021.51 47.738 1021.92 45.5321 1020.29C43.3263 1018.66 42.8976 1015.6 44.5747 1013.46C46.2518 1011.31 49.3995 1010.9 51.6054 1012.53Z" fill="#AD7F58"/>
<path d="M67.7461 999.95C69.952 1001.58 70.3807 1004.64 68.7036 1006.79C67.0265 1008.93 63.8787 1009.35 61.6728 1007.72C59.4669 1006.08 59.0383 1003.02 60.7154 1000.88C62.3925 998.735 65.5402 998.319 67.7461 999.95Z" fill="#AD7F58"/>
<path d="M33.6319 999.237C34.9432 1000.21 36.438 1000.92 38.031 1001.32C39.624 1001.73 41.284 1001.83 42.9161 1001.61C44.5483 1001.4 46.1207 1000.87 47.5436 1000.07C48.9664 999.259 50.2119 998.188 51.2088 996.913L56.5229 990.118C57.7924 988.494 58.4215 986.481 58.2963 984.444C58.1711 982.408 57.2998 980.482 55.8403 979.015C54.3808 977.549 52.4296 976.639 50.3401 976.451C48.2506 976.262 46.161 976.808 44.4497 977.988C41.5074 980.031 38.3411 980.452 34.9506 979.253C32.9779 978.56 30.8154 978.576 28.8544 979.299C26.8934 980.022 25.2635 981.403 24.2595 983.193C23.2555 984.984 22.9439 987.064 23.3809 989.059C23.818 991.054 24.9749 992.831 26.6422 994.068L33.6319 999.237Z" fill="#AD7F58"/>
<path d="M149.889 1060.17C152.095 1061.8 152.524 1064.86 150.847 1067C149.169 1069.15 146.022 1069.56 143.816 1067.93C141.61 1066.3 141.181 1063.24 142.858 1061.1C144.535 1058.95 147.683 1058.54 149.889 1060.17Z" fill="#815E46"/>
<path d="M169.942 1062.74C172.148 1064.37 172.576 1067.43 170.899 1069.58C169.222 1071.72 166.074 1072.14 163.868 1070.5C161.663 1068.87 161.234 1065.81 162.911 1063.67C164.588 1061.52 167.736 1061.11 169.942 1062.74Z" fill="#815E46"/>
<path d="M186.082 1050.16C188.288 1051.79 188.717 1054.85 187.04 1057C185.363 1059.14 182.215 1059.56 180.009 1057.93C177.803 1056.3 177.375 1053.23 179.052 1051.09C180.729 1048.95 183.877 1048.53 186.082 1050.16Z" fill="#815E46"/>
<path d="M151.968 1049.45C153.28 1050.42 154.774 1051.13 156.367 1051.53C157.96 1051.94 159.62 1052.04 161.252 1051.83C162.885 1051.61 164.457 1051.08 165.88 1050.28C167.303 1049.47 168.548 1048.4 169.545 1047.12L174.859 1040.33C176.129 1038.71 176.758 1036.69 176.633 1034.66C176.507 1032.62 175.636 1030.69 174.177 1029.23C172.717 1027.76 170.766 1026.85 168.676 1026.66C166.587 1026.47 164.497 1027.02 162.786 1028.2C159.844 1030.24 156.677 1030.66 153.287 1029.46C151.314 1028.77 149.152 1028.79 147.191 1029.51C145.23 1030.23 143.6 1031.61 142.596 1033.4C141.592 1035.19 141.28 1037.28 141.717 1039.27C142.154 1041.26 143.311 1043.04 144.979 1044.28L151.968 1049.45Z" fill="#815E46"/>
<path d="M41.5528 1203.46C43.7586 1205.09 44.1873 1208.15 42.5102 1210.3C40.8331 1212.44 37.6854 1212.86 35.4795 1211.23C33.2736 1209.6 32.8449 1206.54 34.522 1204.39C36.1991 1202.25 39.3469 1201.83 41.5528 1203.46Z" fill="#815E46"/>
<path d="M61.6054 1206.03C63.8113 1207.67 64.24 1210.73 62.5629 1212.87C60.8858 1215.02 57.738 1215.43 55.5321 1213.8C53.3263 1212.17 52.8976 1209.11 54.5747 1206.96C56.2518 1204.82 59.3995 1204.4 61.6054 1206.03Z" fill="#815E46"/>
<path d="M77.7461 1193.46C79.952 1195.09 80.3807 1198.15 78.7036 1200.29C77.0265 1202.44 73.8787 1202.85 71.6728 1201.22C69.4669 1199.59 69.0383 1196.53 70.7154 1194.39C72.3925 1192.24 75.5402 1191.83 77.7461 1193.46Z" fill="#815E46"/>
<path d="M43.6319 1192.74C44.9432 1193.71 46.438 1194.42 48.031 1194.83C49.624 1195.24 51.284 1195.34 52.9161 1195.12C54.5483 1194.91 56.1207 1194.38 57.5436 1193.57C58.9664 1192.77 60.2119 1191.69 61.2088 1190.42L66.5229 1183.63C67.7924 1182 68.4215 1179.99 68.2963 1177.95C68.1711 1175.91 67.2998 1173.99 65.8403 1172.52C64.3808 1171.06 62.4296 1170.15 60.3401 1169.96C58.2506 1169.77 56.161 1170.31 54.4497 1171.5C51.5074 1173.54 48.3411 1173.96 44.9506 1172.76C42.9779 1172.07 40.8154 1172.08 38.8544 1172.81C36.8934 1173.53 35.2635 1174.91 34.2595 1176.7C33.2555 1178.49 32.9439 1180.57 33.3809 1182.57C33.818 1184.56 34.9749 1186.34 36.6422 1187.57L43.6319 1192.74Z" fill="#815E46"/>
<path d="M151.035 1230.63C153.24 1232.26 153.669 1235.32 151.992 1237.46C150.315 1239.61 147.167 1240.02 144.961 1238.39C142.755 1236.76 142.327 1233.7 144.004 1231.56C145.681 1229.41 148.829 1228.99 151.035 1230.63Z" fill="#815E46"/>
<path d="M171.087 1233.2C173.293 1234.83 173.722 1237.89 172.045 1240.03C170.368 1242.18 167.22 1242.59 165.014 1240.96C162.808 1239.33 162.379 1236.27 164.056 1234.13C165.734 1231.98 168.881 1231.57 171.087 1233.2Z" fill="#815E46"/>
<path d="M187.228 1220.62C189.434 1222.25 189.862 1225.31 188.185 1227.46C186.508 1229.6 183.361 1230.02 181.155 1228.39C178.949 1226.75 178.52 1223.69 180.197 1221.55C181.874 1219.4 185.022 1218.99 187.228 1220.62Z" fill="#815E46"/>
<path d="M153.114 1219.91C154.425 1220.88 155.92 1221.59 157.513 1221.99C159.106 1222.4 160.766 1222.5 162.398 1222.28C164.03 1222.07 165.603 1221.54 167.025 1220.74C168.448 1219.93 169.694 1218.86 170.691 1217.58L176.005 1210.79C177.274 1209.16 177.903 1207.15 177.778 1205.11C177.653 1203.08 176.782 1201.15 175.322 1199.69C173.863 1198.22 171.911 1197.31 169.822 1197.12C167.732 1196.93 165.643 1197.48 163.932 1198.66C160.989 1200.7 157.823 1201.12 154.432 1199.92C152.46 1199.23 150.297 1199.25 148.336 1199.97C146.375 1200.69 144.745 1202.07 143.741 1203.86C142.737 1205.65 142.426 1207.73 142.863 1209.73C143.3 1211.72 144.457 1213.5 146.124 1214.74L153.114 1219.91Z" fill="#815E46"/>
<path d="M139.676 1348.78C142.323 1349.58 143.805 1352.31 142.986 1354.88C142.166 1357.46 139.356 1358.9 136.709 1358.1C134.061 1357.3 132.58 1354.57 133.399 1352C134.218 1349.42 137.028 1347.98 139.676 1348.78Z" fill="#AD7F58"/>
<path d="M159.42 1344.51C162.067 1345.31 163.549 1348.04 162.73 1350.61C161.91 1353.19 159.1 1354.63 156.453 1353.83C153.805 1353.03 152.323 1350.3 153.143 1347.73C153.962 1345.15 156.772 1343.71 159.42 1344.51Z" fill="#AD7F58"/>
<path d="M170.147 1327.31C172.794 1328.11 174.276 1330.84 173.457 1333.42C172.637 1335.99 169.827 1337.43 167.18 1336.63C164.532 1335.84 163.05 1333.1 163.87 1330.53C164.689 1327.96 167.499 1326.52 170.147 1327.31Z" fill="#AD7F58"/>
<path d="M137.849 1338.02C139.423 1338.49 141.077 1338.66 142.717 1338.51C144.358 1338.36 145.952 1337.9 147.409 1337.16C148.866 1336.41 150.158 1335.39 151.21 1334.16C152.262 1332.93 153.054 1331.5 153.541 1329.97L156.137 1321.82C156.757 1319.87 156.638 1317.77 155.802 1315.9C154.966 1314.03 153.469 1312.51 151.581 1311.62C149.693 1310.73 147.539 1310.52 145.51 1311.04C143.48 1311.56 141.71 1312.77 140.519 1314.45C138.475 1317.35 135.649 1318.8 132.041 1318.81C129.944 1318.81 127.918 1319.55 126.331 1320.88C124.744 1322.21 123.7 1324.06 123.388 1326.07C123.076 1328.09 123.517 1330.15 124.631 1331.87C125.745 1333.6 127.458 1334.89 129.46 1335.49L137.849 1338.02Z" fill="#AD7F58"/>
<path d="M268.429 1356.51C271.076 1357.3 272.558 1360.04 271.739 1362.61C270.92 1365.18 268.109 1366.62 265.462 1365.83C262.815 1365.03 261.333 1362.3 262.152 1359.72C262.971 1357.15 265.781 1355.71 268.429 1356.51Z" fill="#AD7F58"/>
<path d="M288.173 1352.24C290.82 1353.03 292.302 1355.77 291.483 1358.34C290.663 1360.91 287.853 1362.35 285.206 1361.56C282.559 1360.76 281.077 1358.03 281.896 1355.45C282.715 1352.88 285.525 1351.44 288.173 1352.24Z" fill="#AD7F58"/>
<path d="M298.9 1335.04C301.547 1335.84 303.029 1338.57 302.21 1341.14C301.391 1343.72 298.58 1345.16 295.933 1344.36C293.286 1343.56 291.804 1340.83 292.623 1338.26C293.442 1335.68 296.252 1334.24 298.9 1335.04Z" fill="#AD7F58"/>
<path d="M266.602 1345.74C268.176 1346.22 269.83 1346.39 271.47 1346.24C273.111 1346.09 274.705 1345.63 276.162 1344.88C277.619 1344.14 278.911 1343.12 279.963 1341.89C281.015 1340.65 281.807 1339.23 282.294 1337.7L284.89 1329.55C285.51 1327.6 285.391 1325.5 284.555 1323.63C283.72 1321.75 282.222 1320.24 280.334 1319.34C278.446 1318.45 276.292 1318.25 274.263 1318.77C272.234 1319.29 270.463 1320.5 269.272 1322.18C267.228 1325.08 264.402 1326.53 260.794 1326.53C258.697 1326.54 256.671 1327.28 255.084 1328.61C253.497 1329.94 252.453 1331.78 252.141 1333.8C251.829 1335.82 252.27 1337.87 253.384 1339.6C254.498 1341.33 256.211 1342.61 258.214 1343.22L266.602 1345.74Z" fill="#AD7F58"/>
<path d="M235.21 1481.54C237.838 1482.39 239.258 1485.15 238.38 1487.71C237.503 1490.26 234.66 1491.64 232.032 1490.79C229.403 1489.94 227.984 1487.17 228.861 1484.62C229.739 1482.06 232.581 1480.68 235.21 1481.54Z" fill="#815E46"/>
<path d="M255.046 1477.69C257.675 1478.55 259.094 1481.31 258.216 1483.86C257.339 1486.42 254.496 1487.8 251.868 1486.95C249.239 1486.09 247.82 1483.33 248.698 1480.77C249.575 1478.22 252.418 1476.84 255.046 1477.69Z" fill="#815E46"/>
<path d="M266.162 1460.73C268.791 1461.58 270.21 1464.35 269.332 1466.9C268.455 1469.46 265.612 1470.84 262.984 1469.98C260.355 1469.13 258.936 1466.37 259.814 1463.81C260.691 1461.26 263.534 1459.88 266.162 1460.73Z" fill="#815E46"/>
<path d="M233.629 1470.74C235.191 1471.24 236.841 1471.45 238.485 1471.33C240.128 1471.22 241.732 1470.8 243.206 1470.08C244.68 1469.37 245.994 1468.38 247.074 1467.17C248.154 1465.96 248.978 1464.55 249.5 1463.03L252.281 1454.94C252.945 1453 252.874 1450.9 252.081 1449.01C251.288 1447.12 249.826 1445.57 247.958 1444.64C246.091 1443.71 243.942 1443.46 241.902 1443.93C239.861 1444.41 238.063 1445.58 236.834 1447.23C234.725 1450.09 231.867 1451.48 228.26 1451.4C226.163 1451.37 224.121 1452.06 222.503 1453.36C220.886 1454.65 219.801 1456.47 219.443 1458.48C219.085 1460.49 219.479 1462.56 220.553 1464.31C221.628 1466.06 223.311 1467.38 225.3 1468.03L233.629 1470.74Z" fill="#815E46"/>
<path d="M363.871 1492.02C366.499 1492.87 367.919 1495.64 367.041 1498.19C366.163 1500.75 363.321 1502.13 360.692 1501.27C358.064 1500.42 356.644 1497.66 357.522 1495.1C358.4 1492.55 361.242 1491.17 363.871 1492.02Z" fill="#815E46"/>
<path d="M383.707 1488.18C386.335 1489.03 387.755 1491.79 386.877 1494.35C386 1496.9 383.157 1498.28 380.529 1497.43C377.9 1496.58 376.481 1493.81 377.358 1491.26C378.236 1488.7 381.078 1487.32 383.707 1488.18Z" fill="#815E46"/>
<path d="M394.823 1471.22C397.451 1472.07 398.871 1474.83 397.993 1477.39C397.116 1479.94 394.273 1481.32 391.645 1480.47C389.016 1479.62 387.597 1476.85 388.474 1474.3C389.352 1471.74 392.194 1470.36 394.823 1471.22Z" fill="#815E46"/>
<path d="M362.29 1481.22C363.852 1481.73 365.502 1481.93 367.145 1481.82C368.789 1481.71 370.393 1481.28 371.867 1480.57C373.34 1479.85 374.655 1478.86 375.735 1477.65C376.815 1476.44 377.639 1475.04 378.161 1473.52L380.942 1465.42C381.606 1463.49 381.535 1461.38 380.742 1459.49C379.949 1457.61 378.486 1456.05 376.619 1455.12C374.752 1454.19 372.603 1453.94 370.563 1454.42C368.522 1454.89 366.724 1456.06 365.495 1457.72C363.386 1460.57 360.528 1461.96 356.92 1461.89C354.823 1461.85 352.781 1462.54 351.164 1463.84C349.547 1465.14 348.461 1466.96 348.104 1468.97C347.746 1470.98 348.14 1473.04 349.214 1474.8C350.289 1476.55 351.972 1477.87 353.961 1478.52L362.29 1481.22Z" fill="#815E46"/>
<path d="M323.009 1610.44C325.769 1610.68 327.801 1613.06 327.548 1615.74C327.296 1618.42 324.854 1620.4 322.094 1620.15C319.334 1619.91 317.302 1617.53 317.555 1614.85C317.807 1612.17 320.249 1610.19 323.009 1610.44Z" fill="#AD7F58"/>
<path d="M341.413 1602.28C344.173 1602.53 346.206 1604.9 345.953 1607.58C345.7 1610.27 343.258 1612.24 340.498 1612C337.739 1611.75 335.706 1609.38 335.959 1606.69C336.212 1604.01 338.654 1602.04 341.413 1602.28Z" fill="#AD7F58"/>
<path d="M348.241 1583.3C351 1583.54 353.033 1585.92 352.78 1588.6C352.527 1591.28 350.085 1593.26 347.326 1593.01C344.566 1592.76 342.533 1590.39 342.786 1587.71C343.039 1585.02 345.481 1583.05 348.241 1583.3Z" fill="#AD7F58"/>
<path d="M318.927 1600.28C320.568 1600.42 322.222 1600.26 323.795 1599.78C325.368 1599.3 326.83 1598.53 328.096 1597.51C329.362 1596.48 330.408 1595.23 331.175 1593.81C331.941 1592.39 332.413 1590.84 332.564 1589.25L333.364 1580.75C333.555 1578.71 332.991 1576.68 331.774 1575.02C330.558 1573.36 328.769 1572.17 326.732 1571.68C324.695 1571.19 322.544 1571.43 320.67 1572.34C318.796 1573.26 317.321 1574.8 316.514 1576.69C315.133 1579.93 312.678 1581.92 309.149 1582.65C307.099 1583.08 305.274 1584.21 304.006 1585.84C302.737 1587.46 302.108 1589.47 302.233 1591.51C302.358 1593.54 303.228 1595.47 304.686 1596.93C306.145 1598.4 308.094 1599.31 310.183 1599.5L318.927 1600.28Z" fill="#AD7F58"/>
<path d="M457.344 1606.06C460.104 1606.31 462.136 1608.68 461.884 1611.36C461.631 1614.05 459.189 1616.02 456.429 1615.78C453.669 1615.53 451.637 1613.16 451.89 1610.47C452.142 1607.79 454.585 1605.81 457.344 1606.06Z" fill="#815E46"/>
<path d="M475.749 1597.9C478.508 1598.15 480.541 1600.52 480.288 1603.21C480.035 1605.89 477.593 1607.86 474.834 1607.62C472.074 1607.37 470.041 1605 470.294 1602.32C470.547 1599.63 472.989 1597.66 475.749 1597.9Z" fill="#815E46"/>
<path d="M482.576 1578.92C485.336 1579.16 487.368 1581.54 487.115 1584.22C486.863 1586.9 484.42 1588.88 481.661 1588.63C478.901 1588.39 476.869 1586.01 477.121 1583.33C477.374 1580.65 479.816 1578.67 482.576 1578.92Z" fill="#815E46"/>
<path d="M453.263 1595.9C454.903 1596.05 456.557 1595.88 458.13 1595.4C459.703 1594.93 461.165 1594.15 462.431 1593.13C463.697 1592.11 464.743 1590.85 465.51 1589.43C466.277 1588.01 466.749 1586.46 466.899 1584.87L467.7 1576.37C467.89 1574.34 467.326 1572.3 466.109 1570.64C464.893 1568.98 463.104 1567.8 461.067 1567.3C459.03 1566.81 456.879 1567.05 455.005 1567.97C453.131 1568.88 451.656 1570.42 450.849 1572.31C449.468 1575.56 447.013 1577.55 443.484 1578.28C441.434 1578.71 439.609 1579.83 438.341 1581.46C437.072 1583.08 436.443 1585.09 436.568 1587.13C436.693 1589.16 437.563 1591.09 439.022 1592.56C440.48 1594.02 442.429 1594.93 444.518 1595.12L453.263 1595.9Z" fill="#815E46"/>
<path d="M461.92 1725.26C464.689 1725.15 467.028 1727.24 467.145 1729.93C467.261 1732.62 465.111 1734.89 462.342 1735.01C459.573 1735.12 457.234 1733.03 457.118 1730.34C457.001 1727.65 459.151 1725.37 461.92 1725.26Z" fill="#AD7F58"/>
<path d="M479.045 1714.79C481.813 1714.68 484.153 1716.77 484.269 1719.46C484.386 1722.15 482.236 1724.43 479.467 1724.54C476.698 1724.66 474.359 1722.56 474.242 1719.87C474.126 1717.18 476.276 1714.91 479.045 1714.79Z" fill="#AD7F58"/>
<path d="M483.214 1695.09C485.982 1694.98 488.321 1697.07 488.438 1699.76C488.555 1702.45 486.405 1704.73 483.636 1704.84C480.867 1704.95 478.528 1702.86 478.411 1700.17C478.295 1697.48 480.445 1695.21 483.214 1695.09Z" fill="#AD7F58"/>
<path d="M456.484 1715.72C458.13 1715.65 459.746 1715.27 461.241 1714.59C462.735 1713.92 464.077 1712.97 465.192 1711.79C466.307 1710.61 467.172 1709.23 467.738 1707.72C468.304 1706.22 468.559 1704.62 468.49 1703.02L468.121 1694.49C468.032 1692.45 467.195 1690.51 465.761 1689.02C464.328 1687.53 462.393 1686.59 460.307 1686.37C458.221 1686.14 456.122 1686.66 454.39 1687.81C452.657 1688.96 451.407 1690.68 450.864 1692.65C449.94 1696.05 447.779 1698.34 444.382 1699.52C442.408 1700.21 440.754 1701.56 439.719 1703.34C438.684 1705.11 438.336 1707.18 438.739 1709.19C439.141 1711.19 440.267 1712.98 441.912 1714.25C443.558 1715.51 445.615 1716.16 447.711 1716.08L456.484 1715.72Z" fill="#AD7F58"/>
<path d="M587.92 1723.5C590.689 1723.39 593.028 1725.48 593.145 1728.17C593.261 1730.86 591.111 1733.13 588.342 1733.25C585.573 1733.36 583.234 1731.27 583.118 1728.58C583.001 1725.89 585.151 1723.61 587.92 1723.5Z" fill="#815E46"/>
<path d="M605.045 1713.03C607.813 1712.92 610.153 1715.01 610.269 1717.7C610.386 1720.39 608.236 1722.67 605.467 1722.78C602.698 1722.89 600.359 1720.8 600.242 1718.11C600.126 1715.42 602.276 1713.15 605.045 1713.03Z" fill="#815E46"/>
<path d="M609.214 1693.33C611.982 1693.22 614.321 1695.31 614.438 1698C614.555 1700.69 612.405 1702.97 609.636 1703.08C606.867 1703.19 604.528 1701.1 604.411 1698.41C604.295 1695.72 606.445 1693.45 609.214 1693.33Z" fill="#815E46"/>
<path d="M582.484 1713.96C584.13 1713.89 585.746 1713.51 587.241 1712.83C588.735 1712.16 590.077 1711.2 591.192 1710.02C592.307 1708.85 593.172 1707.46 593.738 1705.96C594.304 1704.46 594.559 1702.86 594.49 1701.26L594.121 1692.73C594.032 1690.69 593.195 1688.75 591.761 1687.26C590.328 1685.77 588.393 1684.83 586.307 1684.61C584.221 1684.38 582.122 1684.89 580.39 1686.05C578.657 1687.2 577.407 1688.91 576.864 1690.89C575.94 1694.28 573.779 1696.57 570.382 1697.75C568.408 1698.45 566.754 1699.8 565.719 1701.57C564.684 1703.35 564.336 1705.42 564.739 1707.42C565.141 1709.42 566.267 1711.22 567.912 1712.48C569.558 1713.75 571.615 1714.4 573.711 1714.32L582.484 1713.96Z" fill="#815E46"/>
<path d="M569.465 1842.18C572.016 1841.12 574.961 1842.28 576.044 1844.76C577.126 1847.24 575.935 1850.11 573.384 1851.16C570.833 1852.21 567.888 1851.05 566.805 1848.57C565.723 1846.09 566.914 1843.23 569.465 1842.18Z" fill="#815E46"/>
<path d="M581.713 1826.53C584.264 1825.47 587.209 1826.63 588.292 1829.11C589.374 1831.59 588.183 1834.45 585.632 1835.51C583.081 1836.56 580.136 1835.4 579.053 1832.92C577.971 1830.44 579.162 1827.58 581.713 1826.53Z" fill="#815E46"/>
<path d="M578.494 1806.66C581.045 1805.6 583.99 1806.76 585.073 1809.24C586.155 1811.72 584.964 1814.59 582.413 1815.64C579.862 1816.69 576.916 1815.53 575.834 1813.05C574.752 1810.57 575.943 1807.71 578.494 1806.66Z" fill="#815E46"/>
<path d="M560.927 1835.1C562.443 1834.48 563.818 1833.57 564.973 1832.42C566.128 1831.28 567.04 1829.93 567.657 1828.44C568.275 1826.96 568.585 1825.37 568.571 1823.77C568.557 1822.17 568.219 1820.59 567.576 1819.11L564.146 1811.25C563.326 1809.37 561.841 1807.84 559.961 1806.94C558.08 1806.03 555.928 1805.81 553.895 1806.32C551.861 1806.82 550.081 1808.02 548.875 1809.69C547.67 1811.36 547.12 1813.39 547.325 1815.42C547.688 1818.92 546.493 1821.8 543.739 1824.07C542.141 1825.39 541.083 1827.23 540.755 1829.24C540.427 1831.25 540.852 1833.32 541.952 1835.05C543.052 1836.79 544.755 1838.08 546.752 1838.7C548.75 1839.33 550.911 1839.23 552.843 1838.44L560.927 1835.1Z" fill="#815E46"/>
<path d="M685.448 1948.37C687.999 1947.32 690.944 1948.47 692.027 1950.95C693.109 1953.43 691.918 1956.3 689.367 1957.35C686.816 1958.4 683.87 1957.25 682.788 1954.77C681.706 1952.29 682.897 1949.42 685.448 1948.37Z" fill="#815E46"/>
<path d="M697.696 1932.72C700.247 1931.67 703.192 1932.82 704.275 1935.3C705.357 1937.78 704.166 1940.65 701.615 1941.7C699.064 1942.75 696.118 1941.59 695.036 1939.11C693.954 1936.63 695.145 1933.77 697.696 1932.72Z" fill="#815E46"/>
<path d="M694.477 1912.85C697.028 1911.8 699.973 1912.95 701.055 1915.43C702.138 1917.91 700.947 1920.78 698.396 1921.83C695.845 1922.88 692.899 1921.73 691.817 1919.25C690.735 1916.77 691.926 1913.9 694.477 1912.85Z" fill="#815E46"/>
<path d="M676.909 1941.29C678.426 1940.67 679.801 1939.76 680.956 1938.62C682.111 1937.47 683.023 1936.12 683.64 1934.64C684.258 1933.15 684.568 1931.56 684.554 1929.96C684.54 1928.36 684.202 1926.78 683.559 1925.3L680.129 1917.45C679.309 1915.57 677.824 1914.04 675.944 1913.13C674.063 1912.23 671.911 1912.01 669.878 1912.51C667.844 1913.02 666.064 1914.21 664.858 1915.88C663.653 1917.55 663.103 1919.59 663.308 1921.62C663.671 1925.11 662.476 1928 659.722 1930.26C658.124 1931.59 657.066 1933.42 656.738 1935.43C656.41 1937.45 656.834 1939.51 657.935 1941.24C659.035 1942.98 660.738 1944.28 662.735 1944.9C664.733 1945.52 666.894 1945.42 668.826 1944.63L676.909 1941.29Z" fill="#815E46"/>
<path d="M685.871 1827.8C688.61 1827.39 691.172 1829.22 691.594 1831.88C692.016 1834.54 690.137 1837.03 687.398 1837.44C684.659 1837.85 682.097 1836.03 681.675 1833.37C681.253 1830.7 683.132 1828.21 685.871 1827.8Z" fill="#AD7F58"/>
<path d="M701.702 1815.56C704.441 1815.15 707.003 1816.98 707.425 1819.64C707.846 1822.3 705.968 1824.79 703.229 1825.2C700.49 1825.61 697.927 1823.79 697.506 1821.12C697.084 1818.46 698.963 1815.97 701.702 1815.56Z" fill="#AD7F58"/>
<path d="M703.607 1795.53C706.346 1795.12 708.908 1796.95 709.33 1799.61C709.751 1802.27 707.873 1804.76 705.134 1805.18C702.395 1805.59 699.833 1803.76 699.411 1801.1C698.989 1798.43 700.868 1795.94 703.607 1795.53Z" fill="#AD7F58"/>
<path d="M679.384 1818.9C681.013 1818.66 682.575 1818.11 683.984 1817.27C685.392 1816.44 686.618 1815.35 687.592 1814.06C688.566 1812.77 689.269 1811.3 689.661 1809.75C690.052 1808.19 690.125 1806.58 689.874 1804.99L688.538 1796.56C688.218 1794.54 687.165 1792.7 685.572 1791.37C683.978 1790.05 681.948 1789.32 679.849 1789.32C677.75 1789.32 675.722 1790.06 674.131 1791.39C672.541 1792.72 671.493 1794.56 671.178 1796.58C670.645 1800.05 668.758 1802.56 665.515 1804.1C663.632 1805 662.142 1806.52 661.315 1808.4C660.488 1810.27 660.378 1812.37 661.005 1814.32C661.632 1816.26 662.955 1817.92 664.734 1819C666.514 1820.08 668.632 1820.51 670.705 1820.2L679.384 1818.9Z" fill="#AD7F58"/>
</svg>
