<svg width="714" height="803" viewBox="0 0 714 803" fill="none" xmlns="http://www.w3.org/2000/svg">
    <path d="M668.451 23.825C667.65 26.4049 664.851 27.8653 662.198 27.0869C659.546 26.3086 658.045 23.5862 658.845 21.0064C659.646 18.4265 662.445 16.9661 665.098 17.7444C667.75 18.5228 669.251 21.2451 668.451 23.825Z" fill="#815E46"/>
    <path d="M672.982 42.993C672.181 45.5729 669.382 47.0333 666.73 46.255C664.077 45.4766 662.576 42.7542 663.377 40.1744C664.177 37.5945 666.977 36.1341 669.629 36.9125C672.282 37.6908 673.783 40.4132 672.982 42.993Z" fill="#815E46"/>
    <path d="M690.743 53.3016C689.942 55.8815 687.143 57.3419 684.491 56.5635C681.838 55.7852 680.337 53.0628 681.138 50.4829C681.938 47.9031 684.738 46.4427 687.39 47.221C690.042 47.9994 691.544 50.7217 690.743 53.3016Z" fill="#815E46"/>
    <path d="M679.506 21.9724C679.03 23.506 678.869 25.1157 679.033 26.7096C679.196 28.3036 679.681 29.8505 680.46 31.2621C681.238 32.6736 682.295 33.9222 683.569 34.9366C684.844 35.9509 686.311 36.7112 687.888 37.1739L696.293 39.6402C698.302 40.229 700.461 40.0986 702.38 39.2725C704.298 38.4465 705.849 36.9796 706.752 35.1373C707.655 33.2951 707.849 31.1994 707.301 29.2299C706.752 27.2604 705.496 25.5473 703.76 24.4009C700.764 22.4343 699.251 19.6968 699.222 16.1886C699.2 14.1491 698.428 12.1847 697.046 10.6507C695.664 9.11679 693.764 8.11471 691.688 7.8258C689.612 7.5369 687.498 7.98025 685.729 9.07564C683.96 10.171 682.652 11.8461 682.043 13.7977L679.506 21.9724Z" fill="#815E46"/>
    <path d="M661.451 149.264C660.65 151.844 657.851 153.304 655.198 152.526C652.546 151.748 651.045 149.025 651.845 146.445C652.646 143.865 655.445 142.405 658.098 143.183C660.75 143.962 662.251 146.684 661.451 149.264Z" fill="#815E46"/>
    <path d="M665.982 168.432C665.182 171.012 662.382 172.472 659.73 171.694C657.077 170.916 655.576 168.193 656.377 165.613C657.177 163.033 659.977 161.573 662.629 162.351C665.282 163.13 666.783 165.852 665.982 168.432Z" fill="#815E46"/>
    <path d="M683.743 178.741C682.942 181.32 680.143 182.781 677.491 182.002C674.838 181.224 673.337 178.502 674.138 175.922C674.938 173.342 677.738 171.882 680.39 172.66C683.043 173.438 684.544 176.161 683.743 178.741Z" fill="#815E46"/>
    <path d="M672.506 147.411C672.03 148.945 671.869 150.555 672.033 152.149C672.197 153.742 672.681 155.289 673.46 156.701C674.238 158.113 675.295 159.361 676.569 160.376C677.844 161.39 679.312 162.15 680.888 162.613L689.293 165.079C691.302 165.668 693.461 165.537 695.38 164.711C697.298 163.885 698.85 162.418 699.752 160.576C700.655 158.734 700.85 156.638 700.301 154.669C699.752 152.699 698.496 150.986 696.76 149.84C693.764 147.873 692.251 145.136 692.222 141.628C692.2 139.588 691.428 137.624 690.046 136.09C688.665 134.556 686.764 133.554 684.688 133.265C682.612 132.976 680.498 133.419 678.729 134.515C676.96 135.61 675.652 137.285 675.043 139.237L672.506 147.411Z" fill="#815E46"/>
    <path d="M537.451 188.16C536.65 190.74 533.851 192.2 531.198 191.422C528.546 190.643 527.045 187.921 527.845 185.341C528.646 182.761 531.445 181.301 534.098 182.079C536.75 182.857 538.251 185.58 537.451 188.16Z" fill="#815E46"/>
    <path d="M541.982 207.328C541.181 209.908 538.382 211.368 535.73 210.59C533.077 209.811 531.576 207.089 532.377 204.509C533.177 201.929 535.977 200.469 538.629 201.247C541.282 202.026 542.783 204.748 541.982 207.328Z" fill="#815E46"/>
    <path d="M559.743 217.636C558.942 220.216 556.143 221.677 553.491 220.898C550.838 220.12 549.337 217.398 550.138 214.818C550.938 212.238 553.738 210.777 556.39 211.556C559.042 212.334 560.544 215.056 559.743 217.636Z" fill="#815E46"/>
    <path d="M548.506 186.307C548.03 187.841 547.869 189.45 548.033 191.044C548.196 192.638 548.681 194.185 549.46 195.597C550.238 197.008 551.295 198.257 552.569 199.271C553.844 200.286 555.311 201.046 556.888 201.509L565.293 203.975C567.302 204.564 569.461 204.433 571.38 203.607C573.298 202.781 574.849 201.314 575.752 199.472C576.655 197.63 576.849 195.534 576.301 193.565C575.752 191.595 574.496 189.882 572.76 188.736C569.764 186.769 568.251 184.032 568.222 180.523C568.2 178.484 567.428 176.519 566.046 174.985C564.664 173.452 562.764 172.449 560.688 172.161C558.612 171.872 556.498 172.315 554.729 173.41C552.96 174.506 551.652 176.181 551.043 178.132L548.506 186.307Z" fill="#815E46"/>
    <path d="M530.451 313.128C529.65 315.708 526.851 317.169 524.198 316.39C521.546 315.612 520.045 312.89 520.845 310.31C521.646 307.73 524.445 306.27 527.098 307.048C529.75 307.826 531.251 310.549 530.451 313.128Z" fill="#AD7F58"/>
    <path d="M534.982 332.297C534.181 334.876 531.382 336.337 528.73 335.558C526.077 334.78 524.576 332.058 525.377 329.478C526.177 326.898 528.977 325.438 531.629 326.216C534.282 326.994 535.783 329.717 534.982 332.297Z" fill="#AD7F58"/>
    <path d="M552.743 342.605C551.942 345.185 549.143 346.645 546.491 345.867C543.838 345.089 542.337 342.366 543.138 339.786C543.938 337.207 546.738 335.746 549.39 336.524C552.043 337.303 553.544 340.025 552.743 342.605Z" fill="#AD7F58"/>
    <path d="M541.506 311.276C541.03 312.809 540.869 314.419 541.033 316.013C541.196 317.607 541.681 319.154 542.46 320.566C543.238 321.977 544.295 323.226 545.569 324.24C546.844 325.254 548.311 326.015 549.888 326.477L558.293 328.944C560.302 329.532 562.461 329.402 564.38 328.576C566.298 327.75 567.849 326.283 568.752 324.441C569.655 322.599 569.849 320.503 569.301 318.533C568.752 316.564 567.496 314.851 565.76 313.704C562.764 311.738 561.251 309 561.222 305.492C561.2 303.453 560.428 301.488 559.046 299.954C557.664 298.42 555.764 297.418 553.688 297.129C551.612 296.84 549.498 297.284 547.729 298.379C545.96 299.475 544.652 301.15 544.043 303.101L541.506 311.276Z" fill="#AD7F58"/>
    <path d="M29.4878 648C29.7182 650.692 27.6754 653.099 24.9252 653.377C22.1749 653.656 19.7587 651.7 19.5284 649.008C19.298 646.317 21.3408 643.909 24.091 643.631C26.8412 643.353 29.2575 645.309 29.4878 648Z" fill="#815E46"/>
    <path d="M40.9071 664.049C41.1375 666.74 39.0947 669.147 36.3444 669.426C33.5942 669.704 31.178 667.748 30.9476 665.056C30.7173 662.365 32.76 659.958 35.5103 659.679C38.2605 659.401 40.6768 661.357 40.9071 664.049Z" fill="#815E46"/>
    <path d="M61.2431 666.906C61.4735 669.597 59.4307 672.005 56.6805 672.283C53.9302 672.561 51.514 670.605 51.2837 667.914C51.0533 665.222 53.0961 662.815 55.8463 662.537C58.5965 662.258 61.0128 664.214 61.2431 666.906Z" fill="#815E46"/>
    <path d="M39.0302 642.119C39.1672 643.719 39.6248 645.271 40.3769 646.685C41.129 648.1 42.161 649.35 43.4139 650.365C44.6667 651.379 46.1159 652.137 47.6787 652.597C49.2416 653.056 50.8874 653.208 52.5223 653.042L61.2368 652.16C63.3194 651.949 65.2705 651.014 66.7366 649.526C68.2026 648.038 69.0868 646.095 69.2289 644.048C69.371 642.002 68.7616 639.987 67.5112 638.37C66.2608 636.752 64.4519 635.638 62.4123 635.23C58.8956 634.538 56.4629 632.572 55.1141 629.333C54.3256 627.452 52.8707 625.923 51.0127 625.023C49.1547 624.123 47.0163 623.911 44.9846 624.425C42.9528 624.94 41.1619 626.147 39.9358 627.828C38.7098 629.509 38.1296 631.553 38.3003 633.591L39.0302 642.119Z" fill="#815E46"/>
    <path d="M70.8864 761.898C71.1167 764.589 69.0739 766.997 66.3237 767.275C63.5735 767.553 61.1572 765.597 60.9269 762.906C60.6965 760.214 62.7393 757.807 65.4895 757.528C68.2398 757.25 70.656 759.206 70.8864 761.898Z" fill="#AD7F58"/>
    <path d="M82.3056 777.946C82.536 780.637 80.4932 783.045 77.743 783.323C74.9927 783.602 72.5765 781.645 72.3462 778.954C72.1158 776.263 74.1586 773.855 76.9088 773.577C79.659 773.298 82.0753 775.255 82.3056 777.946Z" fill="#AD7F58"/>
    <path d="M102.642 780.803C102.872 783.495 100.829 785.902 98.079 786.18C95.3288 786.459 92.9125 784.503 92.6822 781.811C92.4518 779.12 94.4946 776.712 97.2448 776.434C99.9951 776.156 102.411 778.112 102.642 780.803Z" fill="#AD7F58"/>
    <path d="M80.4287 756.016C80.5657 757.616 81.0233 759.168 81.7754 760.583C82.5276 761.998 83.5595 763.248 84.8124 764.262C86.0652 765.276 87.5145 766.035 89.0773 766.494C90.6401 766.954 92.2859 767.105 93.9208 766.94L102.635 766.058C104.718 765.846 106.669 764.912 108.135 763.424C109.601 761.936 110.485 759.992 110.627 757.946C110.77 755.899 110.16 753.885 108.91 752.267C107.659 750.65 105.85 749.536 103.811 749.128C100.294 748.435 97.8614 746.469 96.5127 743.231C95.7241 741.35 94.2692 739.821 92.4112 738.92C90.5532 738.02 88.4148 737.808 86.3831 738.323C84.3513 738.837 82.5604 740.044 81.3343 741.725C80.1083 743.407 79.5281 745.451 79.6989 747.488L80.4287 756.016Z" fill="#AD7F58"/>
    <path d="M402.217 331.497C400.904 333.871 397.862 334.76 395.422 333.483C392.982 332.207 392.069 329.248 393.382 326.875C394.695 324.502 397.737 323.613 400.177 324.889C402.617 326.166 403.53 329.124 402.217 331.497Z" fill="#815E46"/>
    <path d="M402.733 351.159C401.42 353.532 398.377 354.421 395.937 353.145C393.498 351.869 392.584 348.91 393.897 346.537C395.21 344.164 398.252 343.275 400.692 344.551C403.132 345.827 404.046 348.786 402.733 351.159Z" fill="#815E46"/>
    <path d="M418.027 364.7C416.714 367.074 413.672 367.963 411.232 366.686C408.792 365.41 407.878 362.451 409.191 360.078C410.504 357.705 413.546 356.816 415.986 358.092C418.426 359.369 419.34 362.327 418.027 364.7Z" fill="#815E46"/>
    <path d="M413.43 331.823C412.65 333.233 412.163 334.78 411.997 336.373C411.831 337.967 411.989 339.577 412.463 341.111C412.937 342.645 413.716 344.073 414.758 345.314C415.799 346.555 417.081 347.584 418.532 348.343L426.263 352.387C428.111 353.353 430.254 353.644 432.303 353.206C434.353 352.768 436.173 351.63 437.435 350C438.697 348.369 439.317 346.353 439.182 344.317C439.048 342.281 438.168 340.359 436.702 338.899C434.168 336.392 433.246 333.416 433.936 329.972C434.332 327.97 433.978 325.895 432.938 324.124C431.898 322.353 430.241 321.003 428.265 320.318C426.29 319.633 424.128 319.658 422.17 320.389C420.212 321.12 418.588 322.508 417.591 324.303L413.43 331.823Z" fill="#815E46"/>
    <path d="M369.669 452.99C368.356 455.363 365.314 456.252 362.874 454.976C360.434 453.7 359.52 450.741 360.833 448.368C362.146 445.995 365.188 445.106 367.628 446.382C370.068 447.658 370.982 450.617 369.669 452.99Z" fill="#815E46"/>
    <path d="M370.184 472.652C368.871 475.025 365.829 475.914 363.389 474.638C360.949 473.361 360.036 470.403 361.348 468.03C362.661 465.656 365.704 464.767 368.144 466.044C370.584 467.32 371.497 470.279 370.184 472.652Z" fill="#815E46"/>
    <path d="M385.478 486.193C384.165 488.566 381.123 489.455 378.683 488.179C376.243 486.903 375.33 483.944 376.643 481.571C377.956 479.198 380.998 478.309 383.438 479.585C385.878 480.861 386.791 483.82 385.478 486.193Z" fill="#815E46"/>
    <path d="M380.882 453.315C380.101 454.726 379.614 456.272 379.448 457.866C379.282 459.46 379.441 461.07 379.914 462.604C380.388 464.138 381.168 465.566 382.209 466.807C383.251 468.048 384.533 469.077 385.983 469.836L393.715 473.88C395.563 474.846 397.705 475.136 399.755 474.698C401.804 474.26 403.625 473.123 404.887 471.493C406.149 469.862 406.768 467.846 406.634 465.81C406.499 463.773 405.619 461.851 404.153 460.392C401.619 457.884 400.698 454.909 401.387 451.465C401.784 449.462 401.43 447.388 400.39 445.617C399.35 443.846 397.692 442.496 395.717 441.811C393.742 441.126 391.58 441.151 389.622 441.882C387.664 442.613 386.039 444.001 385.042 445.796L380.882 453.315Z" fill="#815E46"/>
    <path d="M238.217 431.414C236.904 433.787 233.862 434.676 231.422 433.4C228.982 432.123 228.069 429.165 229.382 426.792C230.694 424.418 233.737 423.529 236.177 424.806C238.617 426.082 239.53 429.041 238.217 431.414Z" fill="#815E46"/>
    <path d="M238.732 451.075C237.42 453.448 234.377 454.338 231.937 453.061C229.497 451.785 228.584 448.826 229.897 446.453C231.21 444.08 234.252 443.191 236.692 444.467C239.132 445.744 240.045 448.702 238.732 451.075Z" fill="#815E46"/>
    <path d="M254.027 464.617C252.714 466.99 249.671 467.879 247.231 466.602C244.792 465.326 243.878 462.368 245.191 459.994C246.504 457.621 249.546 456.732 251.986 458.009C254.426 459.285 255.34 462.243 254.027 464.617Z" fill="#815E46"/>
    <path d="M249.43 431.739C248.65 433.15 248.163 434.696 247.997 436.29C247.831 437.883 247.989 439.493 248.463 441.027C248.936 442.561 249.716 443.989 250.758 445.23C251.799 446.471 253.081 447.5 254.532 448.259L262.263 452.303C264.111 453.269 266.254 453.56 268.303 453.122C270.353 452.684 272.173 451.547 273.435 449.916C274.697 448.286 275.317 446.27 275.182 444.233C275.048 442.197 274.168 440.275 272.702 438.815C270.168 436.308 269.246 433.332 269.936 429.889C270.332 427.886 269.978 425.811 268.938 424.04C267.898 422.27 266.24 420.92 264.265 420.234C262.29 419.549 260.128 419.575 258.17 420.305C256.212 421.036 254.587 422.425 253.591 424.219L249.43 431.739Z" fill="#815E46"/>
    <path d="M205.669 552.906C204.356 555.28 201.314 556.169 198.874 554.892C196.434 553.616 195.52 550.657 196.833 548.284C198.146 545.911 201.188 545.022 203.628 546.298C206.068 547.575 206.982 550.533 205.669 552.906Z" fill="#815E46"/>
    <path d="M206.184 572.568C204.871 574.941 201.829 575.83 199.389 574.554C196.949 573.277 196.035 570.319 197.348 567.946C198.661 565.573 201.704 564.684 204.143 565.96C206.583 567.236 207.497 570.195 206.184 572.568Z" fill="#815E46"/>
    <path d="M221.478 586.109C220.165 588.482 217.123 589.372 214.683 588.095C212.243 586.819 211.33 583.86 212.642 581.487C213.955 579.114 216.998 578.225 219.438 579.501C221.878 580.778 222.791 583.736 221.478 586.109Z" fill="#815E46"/>
    <path d="M216.882 553.232C216.101 554.642 215.614 556.189 215.448 557.782C215.282 559.376 215.441 560.986 215.914 562.52C216.388 564.054 217.168 565.482 218.209 566.723C219.25 567.964 220.533 568.993 221.983 569.752L229.715 573.796C231.563 574.762 233.705 575.052 235.755 574.614C237.804 574.177 239.625 573.039 240.887 571.409C242.148 569.778 242.768 567.762 242.634 565.726C242.499 563.69 241.619 561.768 240.153 560.308C237.619 557.801 236.697 554.825 237.387 551.381C237.784 549.378 237.43 547.304 236.39 545.533C235.35 543.762 233.692 542.412 231.717 541.727C229.742 541.042 227.58 541.067 225.622 541.798C223.664 542.529 222.039 543.917 221.042 545.712L216.882 553.232Z" fill="#815E46"/>
    <path d="M144.202 514.404C143.858 517.094 141.359 519.043 138.621 518.758C135.882 518.473 133.94 516.06 134.284 513.37C134.628 510.68 137.127 508.73 139.866 509.016C142.605 509.301 144.546 511.713 144.202 514.404Z" fill="#815E46"/>
    <path d="M151.94 532.486C151.596 535.176 149.097 537.125 146.359 536.84C143.62 536.555 141.678 534.143 142.022 531.452C142.366 528.762 144.866 526.813 147.604 527.098C150.343 527.383 152.284 529.795 151.94 532.486Z" fill="#815E46"/>
    <path d="M171.154 539.424C170.81 542.114 168.311 544.063 165.572 543.778C162.833 543.493 160.892 541.08 161.236 538.39C161.58 535.7 164.079 533.75 166.817 534.036C169.556 534.321 171.498 536.733 171.154 539.424Z" fill="#815E46"/>
    <path d="M154.743 510.566C154.539 512.165 154.657 513.782 155.091 515.324C155.525 516.867 156.267 518.304 157.273 519.555C158.28 520.806 159.532 521.845 160.958 522.614C162.384 523.383 163.956 523.866 165.584 524.035L174.262 524.939C176.336 525.155 178.435 524.634 180.177 523.47C181.92 522.306 183.192 520.577 183.763 518.596C184.334 516.615 184.166 514.512 183.289 512.669C182.412 510.827 180.884 509.365 178.983 508.55C175.702 507.155 173.747 504.73 173.117 501.275C172.746 499.268 171.651 497.47 170.03 496.209C168.41 494.947 166.371 494.304 164.283 494.397C162.194 494.49 160.194 495.311 158.644 496.713C157.094 498.116 156.097 500.006 155.833 502.041L154.743 510.566Z" fill="#815E46"/>
    <path d="M158.81 639.33C158.466 642.02 155.967 643.969 153.228 643.684C150.489 643.399 148.548 640.986 148.892 638.296C149.236 635.606 151.735 633.656 154.474 633.942C157.213 634.227 159.154 636.639 158.81 639.33Z" fill="#815E46"/>
    <path d="M166.548 657.412C166.204 660.102 163.705 662.051 160.966 661.766C158.228 661.481 156.286 659.069 156.63 656.378C156.974 653.688 159.473 651.739 162.212 652.024C164.951 652.309 166.892 654.721 166.548 657.412Z" fill="#815E46"/>
    <path d="M185.761 664.349C185.417 667.04 182.918 668.989 180.179 668.704C177.441 668.419 175.499 666.006 175.843 663.316C176.187 660.626 178.686 658.676 181.425 658.962C184.164 659.247 186.105 661.659 185.761 664.349Z" fill="#815E46"/>
    <path d="M169.351 635.492C169.146 637.091 169.265 638.708 169.699 640.25C170.133 641.793 170.874 643.23 171.881 644.481C172.888 645.732 174.14 646.771 175.565 647.54C176.991 648.309 178.563 648.792 180.191 648.961L188.87 649.865C190.944 650.081 193.042 649.559 194.785 648.396C196.528 647.232 197.8 645.503 198.371 643.522C198.941 641.541 198.773 639.438 197.896 637.595C197.019 635.753 195.492 634.291 193.591 633.476C190.31 632.081 188.355 629.656 187.724 626.201C187.353 624.194 186.258 622.396 184.638 621.135C183.018 619.873 180.979 619.23 178.89 619.323C176.802 619.416 174.802 620.237 173.252 621.639C171.702 623.042 170.705 624.932 170.441 626.967L169.351 635.492Z" fill="#815E46"/>
</svg>