<svg width="22" height="21" viewBox="0 0 22 21" fill="none" xmlns="http://www.w3.org/2000/svg">
<path d="M15.4 6.63158C17.1504 6.63158 18.8292 7.33026 20.0669 8.57392C21.3046 9.81759 22 11.5044 22 13.2632V21H17.6V13.2632C17.6 12.6769 17.3682 12.1146 16.9556 11.7001C16.5431 11.2855 15.9835 11.0526 15.4 11.0526C14.8165 11.0526 14.2569 11.2855 13.8444 11.7001C13.4318 12.1146 13.2 12.6769 13.2 13.2632V21H8.8V13.2632C8.8 11.5044 9.49536 9.81759 10.7331 8.57392C11.9708 7.33026 13.6496 6.63158 15.4 6.63158Z" fill="#3E332E"/>
<path d="M4.4 7.73684H0V21H4.4V7.73684Z" fill="#3E332E"/>
<path d="M2.2 4.42105C3.41503 4.42105 4.4 3.43137 4.4 2.21053C4.4 0.989686 3.41503 0 2.2 0C0.984973 0 0 0.989686 0 2.21053C0 3.43137 0.984973 4.42105 2.2 4.42105Z" fill="#3E332E"/>
</svg>
