<svg width="21" height="20" viewBox="0 0 21 20" fill="none" xmlns="http://www.w3.org/2000/svg">
<path d="M12.0635 7.04785C12.3044 7.78949 12.9956 8.29199 13.7754 8.29199H18.834L14.7412 11.2656C14.1499 11.6954 13.8815 12.4367 14.0488 13.1387L14.0879 13.2783L15.6514 18.0898L11.5576 15.1162L11.4375 15.0352C10.8626 14.6842 10.1374 14.6842 9.5625 15.0352L9.44238 15.1162L5.34766 18.0898L6.91211 13.2783C7.13805 12.5829 6.92019 11.8251 6.37207 11.3555L6.25879 11.2656L2.16602 8.29199H7.22461C7.95551 8.29199 8.6083 7.85058 8.88574 7.18457L8.93652 7.04785L10.5 2.23633L12.0635 7.04785Z" stroke="#666666" stroke-width="2"/>
</svg>
